{
  "accessors": [
    {
      "bufferView": 0,
      "componentType": 5126,
      "count": 168,
      "max": [
        488.0,
        557.0,
        143.0
      ],
      "min": [
        -488.0,
        -301.0,
        -143.0
      ],
      "type": "VEC3"
    },
    {
      "bufferView": 1,
      "componentType": 5126,
      "count": 168,
      "max": [
        0.998779296875,
        1.0,
        0.9267578125
      ],
      "min": [
        -0.998779296875,
        -1.0,
        -0.923583984375
      ],
      "type": "VEC3"
    },
    {
      "bufferView": 2,
      "componentType": 5126,
      "count": 168,
      "max": [
        0.7266625165939331,
        0.3086937367916107
      ],
      "min": [
        9.999999747378752e-05,
        9.999999747378752e-05
      ],
      "type": "VEC2"
    },
    {
      "bufferView": 3,
      "componentType": 5126,
      "count": 168,
      "max": [
        0.015625,
        0.953125
      ],
      "min": [
        0.015625,
        0.953125
      ],
      "type": "VEC2"
    },
    {
      "bufferView": 4,
      "componentType": 5126,
      "count": 16,
      "max": [
        0.5
      ],
      "min": [
        0.0
      ],
      "type": "SCALAR"
    },
    {
      "bufferView": 5,
      "componentType": 5126,
      "count": 16,
      "max": [
        0.0,
        384.0,
        -0.0
      ],
      "min": [
        0.0,
        384.0,
        -0.0
      ],
      "type": "VEC3"
    },
    {
      "bufferView": 6,
      "componentType": 5126,
      "count": 16,
      "max": [
        0.5
      ],
      "min": [
        0.0
      ],
      "type": "SCALAR"
    },
    {
      "bufferView": 7,
      "componentType": 5126,
      "count": 16,
      "max": [
        0.9951850771903992,
        0.9807937145233154,
        0.9569447040557861,
        1.0
      ],
      "min": [
        -0.0,
        0.0,
        0.0,
        0.09801344573497772
      ],
      "type": "VEC4"
    },
    {
      "bufferView": 8,
      "componentType": 5126,
      "count": 16,
      "max": [
        0.5
      ],
      "min": [
        0.0
      ],
      "type": "SCALAR"
    },
    {
      "bufferView": 9,
      "componentType": 5126,
      "count": 16,
      "max": [
        1.0,
        1.0,
        1.0
      ],
      "min": [
        0.999755859375,
        1.0,
        0.999755859375
      ],
      "type": "VEC3"
    }
  ],
  "animations": [
    {
      "channels": [
        {
          "sampler": 0,
          "target": {
            "node": 0,
            "path": "translation"
          }
        },
        {
          "sampler": 1,
          "target": {
            "node": 0,
            "path": "rotation"
          }
        },
        {
          "sampler": 2,
          "target": {
            "node": 0,
            "path": "scale"
          }
        }
      ],
      "extras": {
        "loop_mask": 0,
        "termination_mask": 254
      },
      "name": "anim_E",
      "samplers": [
        {
          "input": 4,
          "interpolation": "LINEAR",
          "output": 5
        },
        {
          "input": 6,
          "interpolation": "LINEAR",
          "output": 7
        },
        {
          "input": 8,
          "interpolation": "LINEAR",
          "output": 9
        }
      ]
    }
  ],
  "asset": {
    "generator": "dw2_model_converter v1.0.0",
    "version": "2.0"
  },
  "bufferViews": [
    {
      "buffer": 0,
      "byteLength": 2016,
      "target": 34962
    },
    {
      "buffer": 1,
      "byteLength": 2016,
      "target": 34962
    },
    {
      "buffer": 2,
      "byteLength": 1344,
      "target": 34962
    },
    {
      "buffer": 3,
      "byteLength": 1344,
      "target": 34962
    },
    {
      "buffer": 4,
      "byteLength": 64
    },
    {
      "buffer": 5,
      "byteLength": 192
    },
    {
      "buffer": 6,
      "byteLength": 64
    },
    {
      "buffer": 7,
      "byteLength": 256
    },
    {
      "buffer": 8,
      "byteLength": 64
    },
    {
      "buffer": 9,
      "byteLength": 192
    }
  ],
  "buffers": [
    {
      "byteLength": 2016,
      "uri": "data:application/octet-stream;base64,"
    },
    {
      "byteLength": 2016,
      "uri": "data:application/octet-stream;base64,"
    },
    {
      "byteLength": 1344,
      "uri": "data:application/octet-stream;base64,"
    },
    {
      "byteLength": 1344,
      "uri": "data:application/octet-stream;base64,"
    },
    {
      "byteLength": 64,
      "uri": "data:application/octet-stream;base64,"
    },
    {
      "byteLength": 192,
      "uri": "data:application/octet-stream;base64,"
    },
    {
      "byteLength": 64,
      "uri": "data:application/octet-stream;base64,"
    },
    {
      "byteLength": 256,
      "uri": "data:application/octet-stream;base64,"
    },
    {
      "byteLength": 64,
      "uri": "data:application/octet-stream;base64,"
    },
    {
      "byteLength": 192,
      "uri": "data:application/octet-stream;base64,"
    }
  ],
  "images": [
    {
      "name": "texture",
      "uri": "data:image/png;base64,"
    }
  ],
  "materials": [
    {
      "alphaMode": "BLEND",
      "extras": {
        "blend_mode": 32
      },
      "pbrMetallicRoughness": {
        "baseColorTexture": {
          "index": 0
        },
        "metallicFactor": 0.0
      }
    }
  ],
  "meshes": [
    {
      "primitives": [
        {
          "attributes": {
            "NORMAL": 1,
            "POSITION": 0,
            "TEXCOORD_0": 2,
            "TEXCOORD_1": 3
          },
          "material": 0,
          "mode": 4
        }
      ]
    }
  ],
  "nodes": [
    {
      "children": [
        1
      ],
      "name": "bone_0",
      "rotation": [
        -0.0,
        0.0,
        0.0,
        1.0
      ],
      "scale": [
        1.0,
        -1.0,
        -1.0
      ],
      "translation": [
        0.0,
        384.0,
        -0.0
      ]
    },
    {
      "mesh": 0,
      "name": "mesh_0"
    }
  ],
  "samplers": [
    {
      "magFilter": 9728,
      "minFilter": 9728,
      "wrapS": 10497,
      "wrapT": 10497
    }
  ],
  "scene": 0,
  "scenes": [
    {
      "extras": {
        "blinking_data": [
          255,
          255,
          255,
          255,
          255,
          255,
          255,
          255,
          255,
          255,
          255,
          255,
          255,
          255,
          255,
          255,
          255,
          255,
          255,
          255,
          254,
          255,
          0,
          0
        ]
      },
      "nodes": [
        0
      ]
    }
  ],
  "skins": [
    {
      "joints": [
        0
      ],
      "skeleton": 0
    }
  ],
  "textures": [
    {
      "sampler": 0,
      "source": 0
    }
  ]
}
