{
  "accessors": [
    {
      "bufferView": 0,
      "componentType": 5126,
      "count": 24,
      "max": [
        300.0,
        30.0,
        30.0
      ],
      "min": [
        0.0,
        -30.0,
        -30.0
      ],
      "type": "VEC3"
    },
    {
      "bufferView": 1,
      "componentType": 5121,
      "count": 24,
      "max": [
        128,
        128,
        128
      ],
      "min": [
        128,
        128,
        128
      ],
      "normalized": true,
      "type": "VEC3"
    },
    {
      "bufferView": 2,
      "componentType": 5126,
      "count": 24,
      "max": [
        20.83009910583496,
        0.4375999867916107
      ],
      "min": [
        20.480098724365234,
        9.999999747378752e-05
      ],
      "type": "VEC2"
    },
    {
      "bufferView": 3,
      "componentType": 5126,
      "count": 120,
      "max": [
        410.0,
        -1.0,
        390.0
      ],
      "min": [
        -410.0,
        -84.0,
        -390.0
      ],
      "type": "VEC3"
    },
    {
      "bufferView": 4,
      "componentType": 5121,
      "count": 120,
      "max": [
        128,
        128,
        128
      ],
      "min": [
        128,
        128,
        128
      ],
      "normalized": true,
      "type": "VEC3"
    },
    {
      "bufferView": 5,
      "componentType": 5126,
      "count": 120,
      "max": [
        20.835098266601563,
        0.9688500165939331
      ],
      "min": [
        20.520099639892578,
        0.5001000165939331
      ],
      "type": "VEC2"
    },
    {
      "bufferView": 6,
      "componentType": 5126,
      "count": 24,
      "max": [
        150.0,
        20.0,
        64.0
      ],
      "min": [
        -150.0,
        -20.0,
        -63.0
      ],
      "type": "VEC3"
    },
    {
      "bufferView": 7,
      "componentType": 5121,
      "count": 24,
      "max": [
        128,
        128,
        128
      ],
      "min": [
        128,
        128,
        128
      ],
      "normalized": true,
      "type": "VEC3"
    },
    {
      "bufferView": 8,
      "componentType": 5126,
      "count": 24,
      "max": [
        21.07509994506836,
        0.9688500165939331
      ],
      "min": [
        20.840099334716797,
        9.999999747378752e-05
      ],
      "type": "VEC2"
    },
    {
      "bufferView": 9,
      "componentType": 5126,
      "count": 24,
      "max": [
        150.0,
        20.0,
        64.0
      ],
      "min": [
        -150.0,
        -20.0,
        -63.0
      ],
      "type": "VEC3"
    },
    {
      "bufferView": 10,
      "componentType": 5121,
      "count": 24,
      "max": [
        128,
        128,
        128
      ],
      "min": [
        128,
        128,
        128
      ],
      "normalized": true,
      "type": "VEC3"
    },
    {
      "bufferView": 11,
      "componentType": 5126,
      "count": 24,
      "max": [
        21.07509994506836,
        0.9688500165939331
      ],
      "min": [
        20.840099334716797,
        9.999999747378752e-05
      ],
      "type": "VEC2"
    },
    {
      "bufferView": 12,
      "componentType": 5126,
      "count": 24,
      "max": [
        150.0,
        20.0,
        64.0
      ],
      "min": [
        -150.0,
        -20.0,
        -63.0
      ],
      "type": "VEC3"
    },
    {
      "bufferView": 13,
      "componentType": 5121,
      "count": 24,
      "max": [
        128,
        128,
        128
      ],
      "min": [
        128,
        128,
        128
      ],
      "normalized": true,
      "type": "VEC3"
    },
    {
      "bufferView": 14,
      "componentType": 5126,
      "count": 24,
      "max": [
        21.07509994506836,
        0.9688500165939331
      ],
      "min": [
        20.840099334716797,
        9.999999747378752e-05
      ],
      "type": "VEC2"
    }
  ],
  "asset": {
    "extras": {
      "model_type": "digimon"
    },
    "generator": "DW1ModelConverter v1.2.0",
    "version": "2.0"
  },
  "bufferViews": [
    {
      "buffer": 0,
      "byteLength": 288,
      "byteStride": 12,
      "target": 34962
    },
    {
      "buffer": 1,
      "byteLength": 96,
      "byteStride": 4,
      "target": 34962
    },
    {
      "buffer": 2,
      "byteLength": 192,
      "byteStride": 8,
      "target": 34962
    },
    {
      "buffer": 3,
      "byteLength": 1440,
      "byteStride": 12,
      "target": 34962
    },
    {
      "buffer": 4,
      "byteLength": 480,
      "byteStride": 4,
      "target": 34962
    },
    {
      "buffer": 5,
      "byteLength": 960,
      "byteStride": 8,
      "target": 34962
    },
    {
      "buffer": 6,
      "byteLength": 288,
      "byteStride": 12,
      "target": 34962
    },
    {
      "buffer": 7,
      "byteLength": 96,
      "byteStride": 4,
      "target": 34962
    },
    {
      "buffer": 8,
      "byteLength": 192,
      "byteStride": 8,
      "target": 34962
    },
    {
      "buffer": 9,
      "byteLength": 288,
      "byteStride": 12,
      "target": 34962
    },
    {
      "buffer": 10,
      "byteLength": 96,
      "byteStride": 4,
      "target": 34962
    },
    {
      "buffer": 11,
      "byteLength": 192,
      "byteStride": 8,
      "target": 34962
    },
    {
      "buffer": 12,
      "byteLength": 288,
      "byteStride": 12,
      "target": 34962
    },
    {
      "buffer": 13,
      "byteLength": 96,
      "byteStride": 4,
      "target": 34962
    },
    {
      "buffer": 14,
      "byteLength": 192,
      "byteStride": 8,
      "target": 34962
    }
  ],
  "buffers": [
    {
      "byteLength": 288,
      "uri": "data:application/octet-stream;base64,"
    },
    {
      "byteLength": 96,
      "uri": "data:application/octet-stream;base64,"
    },
    {
      "byteLength": 192,
      "uri": "data:application/octet-stream;base64,"
    },
    {
      "byteLength": 1440,
      "uri": "data:application/octet-stream;base64,"
    },
    {
      "byteLength": 480,
      "uri": "data:application/octet-stream;base64,"
    },
    {
      "byteLength": 960,
      "uri": "data:application/octet-stream;base64,"
    },
    {
      "byteLength": 288,
      "uri": "data:application/octet-stream;base64,"
    },
    {
      "byteLength": 96,
      "uri": "data:application/octet-stream;base64,"
    },
    {
      "byteLength": 192,
      "uri": "data:application/octet-stream;base64,"
    },
    {
      "byteLength": 288,
      "uri": "data:application/octet-stream;base64,"
    },
    {
      "byteLength": 96,
      "uri": "data:application/octet-stream;base64,"
    },
    {
      "byteLength": 192,
      "uri": "data:application/octet-stream;base64,"
    },
    {
      "byteLength": 288,
      "uri": "data:application/octet-stream;base64,"
    },
    {
      "byteLength": 96,
      "uri": "data:application/octet-stream;base64,"
    },
    {
      "byteLength": 192,
      "uri": "data:application/octet-stream;base64,"
    }
  ],
  "extensionsUsed": [
    "KHR_materials_unlit"
  ],
  "images": [
    {
      "name": "texture",
      "uri": "data:image/png;base64,"
    }
  ],
  "materials": [
    {
      "alphaMode": "BLEND",
      "extensions": {
        "KHR_materials_unlit": {}
      },
      "extras": {
        "blendMode": "1"
      },
      "pbrMetallicRoughness": {
        "baseColorTexture": {
          "index": 0
        },
        "metallicFactor": 0.0
      }
    }
  ],
  "meshes": [
    {
      "primitives": [
        {
          "attributes": {
            "COLOR_0": 1,
            "POSITION": 0,
            "TEXCOORD_0": 2
          },
          "material": 0,
          "mode": 4
        }
      ]
    },
    {
      "primitives": [
        {
          "attributes": {
            "COLOR_0": 4,
            "POSITION": 3,
            "TEXCOORD_0": 5
          },
          "material": 0,
          "mode": 4
        }
      ]
    },
    {
      "primitives": [
        {
          "attributes": {
            "COLOR_0": 7,
            "POSITION": 6,
            "TEXCOORD_0": 8
          },
          "material": 0,
          "mode": 4
        }
      ]
    },
    {
      "primitives": [
        {
          "attributes": {
            "COLOR_0": 10,
            "POSITION": 9,
            "TEXCOORD_0": 11
          },
          "material": 0,
          "mode": 4
        }
      ]
    },
    {
      "primitives": [
        {
          "attributes": {
            "COLOR_0": 13,
            "POSITION": 12,
            "TEXCOORD_0": 14
          },
          "material": 0,
          "mode": 4
        }
      ]
    }
  ],
  "nodes": [
    {
      "mesh": 0
    },
    {
      "mesh": 1
    },
    {
      "mesh": 2
    },
    {
      "mesh": 3
    },
    {
      "mesh": 4
    }
  ],
  "samplers": [
    {
      "magFilter": 9728,
      "minFilter": 9728,
      "wrapS": 10497,
      "wrapT": 10497
    }
  ],
  "scene": 0,
  "scenes": [
    {
      "nodes": [
        0,
        1,
        2,
        3,
        4
      ]
    }
  ],
  "textures": [
    {
      "sampler": 0,
      "source": 0
    }
  ]
}
