{
  "accessors": [
    {
      "bufferView": 0,
      "componentType": 5126,
      "count": 96,
      "max": [
        60.0,
        0.0,
        60.0
      ],
      "min": [
        -60.0,
        -500.0,
        -60.0
      ],
      "type": "VEC3"
    },
    {
      "bufferView": 1,
      "componentType": 5121,
      "count": 96,
      "max": [
        128,
        128,
        128
      ],
      "min": [
        128,
        128,
        128
      ],
      "normalized": true,
      "type": "VEC3"
    },
    {
      "bufferView": 2,
      "componentType": 5126,
      "count": 96,
      "max": [
        16.308692932128906,
        0.9688500165939331
      ],
      "min": [
        16.250099182128906,
        9.999999747378752e-05
      ],
      "type": "VEC2"
    },
    {
      "bufferView": 3,
      "componentType": 5126,
      "count": 96,
      "max": [
        126.0,
        0.0,
        130.0
      ],
      "min": [
        -135.0,
        -36.0,
        -130.0
      ],
      "type": "VEC3"
    },
    {
      "bufferView": 4,
      "componentType": 5121,
      "count": 96,
      "max": [
        128,
        128,
        128
      ],
      "min": [
        128,
        128,
        128
      ],
      "normalized": true,
      "type": "VEC3"
    },
    {
      "bufferView": 5,
      "componentType": 5126,
      "count": 96,
      "max": [
        16.839942932128906,
        0.9376000165939331
      ],
      "min": [
        16.781349182128906,
        9.999999747378752e-05
      ],
      "type": "VEC2"
    },
    {
      "bufferView": 6,
      "componentType": 5126,
      "count": 144,
      "max": [
        121.0,
        130.0,
        128.0
      ],
      "min": [
        -130.0,
        -118.0,
        -130.0
      ],
      "type": "VEC3"
    },
    {
      "bufferView": 7,
      "componentType": 5126,
      "count": 144,
      "max": [
        0.946044921875,
        0.94287109375,
        0.880615234375
      ],
      "min": [
        -0.86279296875,
        -0.9619140625,
        -0.898193359375
      ],
      "type": "VEC3"
    },
    {
      "bufferView": 8,
      "componentType": 5126,
      "count": 144,
      "max": [
        16.246192932128906,
        0.9688500165939331
      ],
      "min": [
        16.125099182128906,
        9.999999747378752e-05
      ],
      "type": "VEC2"
    },
    {
      "bufferView": 9,
      "componentType": 5126,
      "count": 60,
      "max": [
        62.0,
        73.0,
        70.0
      ],
      "min": [
        -62.0,
        -73.0,
        -59.0
      ],
      "type": "VEC3"
    },
    {
      "bufferView": 10,
      "componentType": 5126,
      "count": 60,
      "max": [
        0.936767578125,
        0.912353515625,
        0.9658203125
      ],
      "min": [
        -0.984619140625,
        -0.9140625,
        -0.982421875
      ],
      "type": "VEC3"
    },
    {
      "bufferView": 11,
      "componentType": 5126,
      "count": 60,
      "max": [
        16.246192932128906,
        0.9688500165939331
      ],
      "min": [
        16.125099182128906,
        9.999999747378752e-05
      ],
      "type": "VEC2"
    }
  ],
  "asset": {
    "extras": {
      "model_type": "digimon"
    },
    "generator": "DW1ModelConverter v1.2.0",
    "version": "2.0"
  },
  "bufferViews": [
    {
      "buffer": 0,
      "byteLength": 1152,
      "byteStride": 12,
      "target": 34962
    },
    {
      "buffer": 1,
      "byteLength": 384,
      "byteStride": 4,
      "target": 34962
    },
    {
      "buffer": 2,
      "byteLength": 768,
      "byteStride": 8,
      "target": 34962
    },
    {
      "buffer": 3,
      "byteLength": 1152,
      "byteStride": 12,
      "target": 34962
    },
    {
      "buffer": 4,
      "byteLength": 384,
      "byteStride": 4,
      "target": 34962
    },
    {
      "buffer": 5,
      "byteLength": 768,
      "byteStride": 8,
      "target": 34962
    },
    {
      "buffer": 6,
      "byteLength": 1728,
      "byteStride": 12,
      "target": 34962
    },
    {
      "buffer": 7,
      "byteLength": 1728,
      "byteStride": 12,
      "target": 34962
    },
    {
      "buffer": 8,
      "byteLength": 1152,
      "byteStride": 8,
      "target": 34962
    },
    {
      "buffer": 9,
      "byteLength": 720,
      "byteStride": 12,
      "target": 34962
    },
    {
      "buffer": 10,
      "byteLength": 720,
      "byteStride": 12,
      "target": 34962
    },
    {
      "buffer": 11,
      "byteLength": 480,
      "byteStride": 8,
      "target": 34962
    }
  ],
  "buffers": [
    {
      "byteLength": 1152,
      "uri": "data:application/octet-stream;base64,"
    },
    {
      "byteLength": 384,
      "uri": "data:application/octet-stream;base64,"
    },
    {
      "byteLength": 768,
      "uri": "data:application/octet-stream;base64,"
    },
    {
      "byteLength": 1152,
      "uri": "data:application/octet-stream;base64,"
    },
    {
      "byteLength": 384,
      "uri": "data:application/octet-stream;base64,"
    },
    {
      "byteLength": 768,
      "uri": "data:application/octet-stream;base64,"
    },
    {
      "byteLength": 1728,
      "uri": "data:application/octet-stream;base64,"
    },
    {
      "byteLength": 1728,
      "uri": "data:application/octet-stream;base64,"
    },
    {
      "byteLength": 1152,
      "uri": "data:application/octet-stream;base64,"
    },
    {
      "byteLength": 720,
      "uri": "data:application/octet-stream;base64,"
    },
    {
      "byteLength": 720,
      "uri": "data:application/octet-stream;base64,"
    },
    {
      "byteLength": 480,
      "uri": "data:application/octet-stream;base64,"
    }
  ],
  "extensionsUsed": [
    "KHR_materials_unlit"
  ],
  "images": [
    {
      "name": "texture",
      "uri": "data:image/png;base64,"
    }
  ],
  "materials": [
    {
      "alphaMode": "BLEND",
      "extensions": {
        "KHR_materials_unlit": {}
      },
      "extras": {
        "blendMode": "0"
      },
      "pbrMetallicRoughness": {
        "baseColorTexture": {
          "index": 0
        },
        "metallicFactor": 0.0
      }
    },
    {
      "alphaMode": "BLEND",
      "extensions": {
        "KHR_materials_unlit": {}
      },
      "extras": {
        "blendMode": "1"
      },
      "pbrMetallicRoughness": {
        "baseColorTexture": {
          "index": 0
        },
        "metallicFactor": 0.0
      }
    },
    {
      "alphaCutoff": 0.10000000149011612,
      "alphaMode": "MASK",
      "pbrMetallicRoughness": {
        "baseColorTexture": {
          "index": 0
        },
        "metallicFactor": 0.0
      }
    }
  ],
  "meshes": [
    {
      "primitives": [
        {
          "attributes": {
            "COLOR_0": 1,
            "POSITION": 0,
            "TEXCOORD_0": 2
          },
          "material": 0,
          "mode": 4
        }
      ]
    },
    {
      "primitives": [
        {
          "attributes": {
            "COLOR_0": 4,
            "POSITION": 3,
            "TEXCOORD_0": 5
          },
          "material": 1,
          "mode": 4
        }
      ]
    },
    {
      "primitives": [
        {
          "attributes": {
            "NORMAL": 7,
            "POSITION": 6,
            "TEXCOORD_0": 8
          },
          "material": 2,
          "mode": 4
        }
      ]
    },
    {
      "primitives": [
        {
          "attributes": {
            "NORMAL": 10,
            "POSITION": 9,
            "TEXCOORD_0": 11
          },
          "material": 2,
          "mode": 4
        }
      ]
    }
  ],
  "nodes": [
    {
      "mesh": 0
    },
    {
      "mesh": 1
    },
    {
      "mesh": 2
    },
    {
      "mesh": 3
    }
  ],
  "samplers": [
    {
      "magFilter": 9728,
      "minFilter": 9728,
      "wrapS": 10497,
      "wrapT": 10497
    }
  ],
  "scene": 0,
  "scenes": [
    {
      "nodes": [
        0,
        1,
        2,
        3
      ]
    }
  ],
  "textures": [
    {
      "sampler": 0,
      "source": 0
    }
  ]
}
