{
  "accessors": [
    {
      "bufferView": 0,
      "componentType": 5126,
      "count": 174,
      "max": [
        74.0,
        133.0,
        76.0
      ],
      "min": [
        -74.0,
        0.0,
        -52.0
      ],
      "type": "VEC3"
    },
    {
      "bufferView": 1,
      "componentType": 5126,
      "count": 174,
      "max": [
        1.0,
        1.0,
        1.0
      ],
      "min": [
        -1.0,
        -1.0,
        -1.0
      ],
      "type": "VEC3"
    },
    {
      "bufferView": 2,
      "componentType": 5126,
      "count": 174,
      "max": [
        17.512195587158203,
        0.9688500165939331
      ],
      "min": [
        16.548486709594727,
        9.999999747378752e-05
      ],
      "type": "VEC2"
    },
    {
      "bufferView": 3,
      "componentType": 5126,
      "count": 156,
      "max": [
        612.0,
        0.0,
        612.0
      ],
      "min": [
        -612.0,
        -439.0,
        -612.0
      ],
      "type": "VEC3"
    },
    {
      "bufferView": 4,
      "componentType": 5121,
      "count": 156,
      "max": [
        128,
        128,
        128
      ],
      "min": [
        128,
        128,
        128
      ],
      "normalized": true,
      "type": "VEC3"
    },
    {
      "bufferView": 5,
      "componentType": 5126,
      "count": 156,
      "max": [
        17.383163452148438,
        0.9688500165939331
      ],
      "min": [
        16.677518844604492,
        9.999999747378752e-05
      ],
      "type": "VEC2"
    },
    {
      "bufferView": 6,
      "componentType": 5126,
      "count": 24,
      "max": [
        20.0,
        0.0,
        20.0
      ],
      "min": [
        -20.0,
        -3999.0,
        -20.0
      ],
      "type": "VEC3"
    },
    {
      "bufferView": 7,
      "componentType": 5121,
      "count": 24,
      "max": [
        128,
        128,
        128
      ],
      "min": [
        128,
        128,
        128
      ],
      "normalized": true,
      "type": "VEC3"
    },
    {
      "bufferView": 8,
      "componentType": 5126,
      "count": 24,
      "max": [
        16.54445457458496,
        0.2188500016927719
      ],
      "min": [
        16.51622772216797,
        9.999999747378752e-05
      ],
      "type": "VEC2"
    },
    {
      "bufferView": 9,
      "componentType": 5126,
      "count": 12,
      "max": [
        0.0,
        0.0,
        2603.0
      ],
      "min": [
        0.0,
        -3999.0,
        -20.0
      ],
      "type": "VEC3"
    },
    {
      "bufferView": 10,
      "componentType": 5121,
      "count": 12,
      "max": [
        128,
        128,
        128
      ],
      "min": [
        128,
        128,
        128
      ],
      "normalized": true,
      "type": "VEC3"
    },
    {
      "bufferView": 11,
      "componentType": 5126,
      "count": 12,
      "max": [
        16.99606704711914,
        0.9688500165939331
      ],
      "min": [
        16.7742919921875,
        9.999999747378752e-05
      ],
      "type": "VEC2"
    },
    {
      "bufferView": 12,
      "componentType": 5126,
      "count": 6,
      "max": [
        24.0,
        0.0,
        4000.0
      ],
      "min": [
        -24.0,
        0.0,
        0.0
      ],
      "type": "VEC3"
    },
    {
      "bufferView": 13,
      "componentType": 5121,
      "count": 6,
      "max": [
        128,
        128,
        128
      ],
      "min": [
        128,
        128,
        128
      ],
      "normalized": true,
      "type": "VEC3"
    },
    {
      "bufferView": 14,
      "componentType": 5126,
      "count": 6,
      "max": [
        16.54445457458496,
        0.4688499867916107
      ],
      "min": [
        16.51622772216797,
        0.2500999867916107
      ],
      "type": "VEC2"
    }
  ],
  "asset": {
    "extras": {
      "model_type": "digimon"
    },
    "generator": "DW1ModelConverter v1.2.0",
    "version": "2.0"
  },
  "bufferViews": [
    {
      "buffer": 0,
      "byteLength": 2088,
      "byteStride": 12,
      "target": 34962
    },
    {
      "buffer": 1,
      "byteLength": 2088,
      "byteStride": 12,
      "target": 34962
    },
    {
      "buffer": 2,
      "byteLength": 1392,
      "byteStride": 8,
      "target": 34962
    },
    {
      "buffer": 3,
      "byteLength": 1872,
      "byteStride": 12,
      "target": 34962
    },
    {
      "buffer": 4,
      "byteLength": 624,
      "byteStride": 4,
      "target": 34962
    },
    {
      "buffer": 5,
      "byteLength": 1248,
      "byteStride": 8,
      "target": 34962
    },
    {
      "buffer": 6,
      "byteLength": 288,
      "byteStride": 12,
      "target": 34962
    },
    {
      "buffer": 7,
      "byteLength": 96,
      "byteStride": 4,
      "target": 34962
    },
    {
      "buffer": 8,
      "byteLength": 192,
      "byteStride": 8,
      "target": 34962
    },
    {
      "buffer": 9,
      "byteLength": 144,
      "byteStride": 12,
      "target": 34962
    },
    {
      "buffer": 10,
      "byteLength": 48,
      "byteStride": 4,
      "target": 34962
    },
    {
      "buffer": 11,
      "byteLength": 96,
      "byteStride": 8,
      "target": 34962
    },
    {
      "buffer": 12,
      "byteLength": 72,
      "byteStride": 12,
      "target": 34962
    },
    {
      "buffer": 13,
      "byteLength": 24,
      "byteStride": 4,
      "target": 34962
    },
    {
      "buffer": 14,
      "byteLength": 48,
      "byteStride": 8,
      "target": 34962
    }
  ],
  "buffers": [
    {
      "byteLength": 2088,
      "uri": "data:application/octet-stream;base64,"
    },
    {
      "byteLength": 2088,
      "uri": "data:application/octet-stream;base64,"
    },
    {
      "byteLength": 1392,
      "uri": "data:application/octet-stream;base64,"
    },
    {
      "byteLength": 1872,
      "uri": "data:application/octet-stream;base64,"
    },
    {
      "byteLength": 624,
      "uri": "data:application/octet-stream;base64,"
    },
    {
      "byteLength": 1248,
      "uri": "data:application/octet-stream;base64,"
    },
    {
      "byteLength": 288,
      "uri": "data:application/octet-stream;base64,"
    },
    {
      "byteLength": 96,
      "uri": "data:application/octet-stream;base64,"
    },
    {
      "byteLength": 192,
      "uri": "data:application/octet-stream;base64,"
    },
    {
      "byteLength": 144,
      "uri": "data:application/octet-stream;base64,"
    },
    {
      "byteLength": 48,
      "uri": "data:application/octet-stream;base64,"
    },
    {
      "byteLength": 96,
      "uri": "data:application/octet-stream;base64,"
    },
    {
      "byteLength": 72,
      "uri": "data:application/octet-stream;base64,"
    },
    {
      "byteLength": 24,
      "uri": "data:application/octet-stream;base64,"
    },
    {
      "byteLength": 48,
      "uri": "data:application/octet-stream;base64,"
    }
  ],
  "extensionsUsed": [
    "KHR_materials_unlit"
  ],
  "images": [
    {
      "name": "texture",
      "uri": "data:image/png;base64,"
    }
  ],
  "materials": [
    {
      "alphaCutoff": 0.10000000149011612,
      "alphaMode": "MASK",
      "pbrMetallicRoughness": {
        "baseColorTexture": {
          "index": 0
        },
        "metallicFactor": 0.0
      }
    },
    {
      "alphaMode": "BLEND",
      "extensions": {
        "KHR_materials_unlit": {}
      },
      "extras": {
        "blendMode": "1"
      },
      "pbrMetallicRoughness": {
        "baseColorTexture": {
          "index": 0
        },
        "metallicFactor": 0.0
      }
    },
    {
      "alphaCutoff": 0.10000000149011612,
      "alphaMode": "MASK",
      "extensions": {
        "KHR_materials_unlit": {}
      },
      "pbrMetallicRoughness": {
        "baseColorTexture": {
          "index": 0
        },
        "metallicFactor": 0.0
      }
    },
    {
      "alphaMode": "BLEND",
      "extensions": {
        "KHR_materials_unlit": {}
      },
      "extras": {
        "blendMode": "2"
      },
      "pbrMetallicRoughness": {
        "baseColorTexture": {
          "index": 0
        },
        "metallicFactor": 0.0
      }
    }
  ],
  "meshes": [
    {
      "primitives": [
        {
          "attributes": {
            "NORMAL": 1,
            "POSITION": 0,
            "TEXCOORD_0": 2
          },
          "material": 0,
          "mode": 4
        }
      ]
    },
    {
      "primitives": [
        {
          "attributes": {
            "COLOR_0": 4,
            "POSITION": 3,
            "TEXCOORD_0": 5
          },
          "material": 1,
          "mode": 4
        }
      ]
    },
    {
      "primitives": [
        {
          "attributes": {
            "COLOR_0": 7,
            "POSITION": 6,
            "TEXCOORD_0": 8
          },
          "material": 2,
          "mode": 4
        }
      ]
    },
    {
      "primitives": [
        {
          "attributes": {
            "COLOR_0": 10,
            "POSITION": 9,
            "TEXCOORD_0": 11
          },
          "material": 1,
          "mode": 4
        }
      ]
    },
    {
      "primitives": [
        {
          "attributes": {
            "COLOR_0": 13,
            "POSITION": 12,
            "TEXCOORD_0": 14
          },
          "material": 3,
          "mode": 4
        }
      ]
    }
  ],
  "nodes": [
    {
      "mesh": 0
    },
    {
      "mesh": 1
    },
    {
      "mesh": 2
    },
    {
      "mesh": 3
    },
    {
      "mesh": 4
    }
  ],
  "samplers": [
    {
      "magFilter": 9728,
      "minFilter": 9728,
      "wrapS": 10497,
      "wrapT": 10497
    }
  ],
  "scene": 0,
  "scenes": [
    {
      "nodes": [
        0,
        1,
        2,
        3,
        4
      ]
    }
  ],
  "textures": [
    {
      "sampler": 0,
      "source": 0
    }
  ]
}
