{
  "accessors": [
    {
      "bufferView": 0,
      "componentType": 5126,
      "count": 108,
      "max": [
        29.0,
        70.0,
        25.0
      ],
      "min": [
        -29.0,
        -97.0,
        -25.0
      ],
      "type": "VEC3"
    },
    {
      "bufferView": 1,
      "componentType": 5126,
      "count": 108,
      "max": [
        0.865966796875,
        1.0,
        1.0
      ],
      "min": [
        -0.865966796875,
        -1.0,
        -1.0
      ],
      "type": "VEC3"
    },
    {
      "bufferView": 2,
      "componentType": 5126,
      "count": 108,
      "max": [
        52.08760070800781,
        0.9688500165939331
      ],
      "min": [
        51.70009994506836,
        9.999999747378752e-05
      ],
      "type": "VEC2"
    },
    {
      "bufferView": 3,
      "componentType": 5126,
      "count": 84,
      "max": [
        64.0,
        34.0,
        65.0
      ],
      "min": [
        -64.0,
        -10.0,
        -65.0
      ],
      "type": "VEC3"
    },
    {
      "bufferView": 4,
      "componentType": 5126,
      "count": 84,
      "max": [
        1.0,
        1.0,
        1.0
      ],
      "min": [
        -1.0,
        -1.0,
        -1.0
      ],
      "type": "VEC3"
    },
    {
      "bufferView": 5,
      "componentType": 5126,
      "count": 84,
      "max": [
        52.08760070800781,
        0.9688500165939331
      ],
      "min": [
        51.80009841918945,
        9.999999747378752e-05
      ],
      "type": "VEC2"
    },
    {
      "bufferView": 6,
      "componentType": 5126,
      "count": 96,
      "max": [
        128.0,
        13.0,
        15.0
      ],
      "min": [
        -178.0,
        -91.0,
        -15.0
      ],
      "type": "VEC3"
    },
    {
      "bufferView": 7,
      "componentType": 5126,
      "count": 96,
      "max": [
        1.0,
        1.0,
        0.865966796875
      ],
      "min": [
        -1.0,
        -1.0,
        -0.865966796875
      ],
      "type": "VEC3"
    },
    {
      "bufferView": 8,
      "componentType": 5126,
      "count": 96,
      "max": [
        51.875099182128906,
        0.9688500165939331
      ],
      "min": [
        51.60009765625,
        9.999999747378752e-05
      ],
      "type": "VEC2"
    },
    {
      "bufferView": 9,
      "componentType": 5126,
      "count": 72,
      "max": [
        27.0,
        109.0,
        23.0
      ],
      "min": [
        -27.0,
        -117.0,
        -23.0
      ],
      "type": "VEC3"
    },
    {
      "bufferView": 10,
      "componentType": 5126,
      "count": 72,
      "max": [
        0.865966796875,
        1.0,
        1.0
      ],
      "min": [
        -0.865966796875,
        -1.0,
        -1.0
      ],
      "type": "VEC3"
    },
    {
      "bufferView": 11,
      "componentType": 5126,
      "count": 72,
      "max": [
        52.187599182128906,
        0.9688500165939331
      ],
      "min": [
        51.60009765625,
        9.999999747378752e-05
      ],
      "type": "VEC2"
    }
  ],
  "asset": {
    "extras": {
      "model_type": "digimon"
    },
    "generator": "DW1ModelConverter v1.2.0",
    "version": "2.0"
  },
  "bufferViews": [
    {
      "buffer": 0,
      "byteLength": 1296,
      "byteStride": 12,
      "target": 34962
    },
    {
      "buffer": 1,
      "byteLength": 1296,
      "byteStride": 12,
      "target": 34962
    },
    {
      "buffer": 2,
      "byteLength": 864,
      "byteStride": 8,
      "target": 34962
    },
    {
      "buffer": 3,
      "byteLength": 1008,
      "byteStride": 12,
      "target": 34962
    },
    {
      "buffer": 4,
      "byteLength": 1008,
      "byteStride": 12,
      "target": 34962
    },
    {
      "buffer": 5,
      "byteLength": 672,
      "byteStride": 8,
      "target": 34962
    },
    {
      "buffer": 6,
      "byteLength": 1152,
      "byteStride": 12,
      "target": 34962
    },
    {
      "buffer": 7,
      "byteLength": 1152,
      "byteStride": 12,
      "target": 34962
    },
    {
      "buffer": 8,
      "byteLength": 768,
      "byteStride": 8,
      "target": 34962
    },
    {
      "buffer": 9,
      "byteLength": 864,
      "byteStride": 12,
      "target": 34962
    },
    {
      "buffer": 10,
      "byteLength": 864,
      "byteStride": 12,
      "target": 34962
    },
    {
      "buffer": 11,
      "byteLength": 576,
      "byteStride": 8,
      "target": 34962
    }
  ],
  "buffers": [
    {
      "byteLength": 1296,
      "uri": "data:application/octet-stream;base64,"
    },
    {
      "byteLength": 1296,
      "uri": "data:application/octet-stream;base64,"
    },
    {
      "byteLength": 864,
      "uri": "data:application/octet-stream;base64,"
    },
    {
      "byteLength": 1008,
      "uri": "data:application/octet-stream;base64,"
    },
    {
      "byteLength": 1008,
      "uri": "data:application/octet-stream;base64,"
    },
    {
      "byteLength": 672,
      "uri": "data:application/octet-stream;base64,"
    },
    {
      "byteLength": 1152,
      "uri": "data:application/octet-stream;base64,"
    },
    {
      "byteLength": 1152,
      "uri": "data:application/octet-stream;base64,"
    },
    {
      "byteLength": 768,
      "uri": "data:application/octet-stream;base64,"
    },
    {
      "byteLength": 864,
      "uri": "data:application/octet-stream;base64,"
    },
    {
      "byteLength": 864,
      "uri": "data:application/octet-stream;base64,"
    },
    {
      "byteLength": 576,
      "uri": "data:application/octet-stream;base64,"
    }
  ],
  "images": [
    {
      "name": "texture",
      "uri": "data:image/png;base64,"
    }
  ],
  "materials": [
    {
      "alphaCutoff": 0.10000000149011612,
      "alphaMode": "MASK",
      "pbrMetallicRoughness": {
        "baseColorTexture": {
          "index": 0
        },
        "metallicFactor": 0.0
      }
    }
  ],
  "meshes": [
    {
      "primitives": [
        {
          "attributes": {
            "NORMAL": 1,
            "POSITION": 0,
            "TEXCOORD_0": 2
          },
          "material": 0,
          "mode": 4
        }
      ]
    },
    {
      "primitives": [
        {
          "attributes": {
            "NORMAL": 4,
            "POSITION": 3,
            "TEXCOORD_0": 5
          },
          "material": 0,
          "mode": 4
        }
      ]
    },
    {
      "primitives": [
        {
          "attributes": {
            "NORMAL": 7,
            "POSITION": 6,
            "TEXCOORD_0": 8
          },
          "material": 0,
          "mode": 4
        }
      ]
    },
    {
      "primitives": [
        {
          "attributes": {
            "NORMAL": 10,
            "POSITION": 9,
            "TEXCOORD_0": 11
          },
          "material": 0,
          "mode": 4
        }
      ]
    }
  ],
  "nodes": [
    {
      "mesh": 0
    },
    {
      "mesh": 1
    },
    {
      "mesh": 2
    },
    {
      "mesh": 3
    }
  ],
  "samplers": [
    {
      "magFilter": 9728,
      "minFilter": 9728,
      "wrapS": 10497,
      "wrapT": 10497
    }
  ],
  "scene": 0,
  "scenes": [
    {
      "nodes": [
        0,
        1,
        2,
        3
      ]
    }
  ],
  "textures": [
    {
      "sampler": 0,
      "source": 0
    }
  ]
}
