{
  "accessors": [
    {
      "bufferView": 0,
      "componentType": 5126,
      "count": 72,
      "max": [
        270.0,
        0.0,
        270.0
      ],
      "min": [
        -270.0,
        0.0,
        -270.0
      ],
      "type": "VEC3"
    },
    {
      "bufferView": 1,
      "componentType": 5121,
      "count": 72,
      "max": [
        128,
        128,
        128
      ],
      "min": [
        128,
        128,
        128
      ],
      "normalized": true,
      "type": "VEC3"
    },
    {
      "bufferView": 2,
      "componentType": 5126,
      "count": 72,
      "max": [
        16.871192932128906,
        0.7188500165939331
      ],
      "min": [
        16.812599182128906,
        0.5001000165939331
      ],
      "type": "VEC2"
    },
    {
      "bufferView": 3,
      "componentType": 5126,
      "count": 72,
      "max": [
        189.0,
        0.0,
        189.0
      ],
      "min": [
        -189.0,
        0.0,
        -189.0
      ],
      "type": "VEC3"
    },
    {
      "bufferView": 4,
      "componentType": 5121,
      "count": 72,
      "max": [
        128,
        128,
        128
      ],
      "min": [
        128,
        128,
        128
      ],
      "normalized": true,
      "type": "VEC3"
    },
    {
      "bufferView": 5,
      "componentType": 5126,
      "count": 72,
      "max": [
        16.871192932128906,
        0.4688499867916107
      ],
      "min": [
        16.812599182128906,
        0.2500999867916107
      ],
      "type": "VEC2"
    },
    {
      "bufferView": 6,
      "componentType": 5126,
      "count": 72,
      "max": [
        232.0,
        0.0,
        232.0
      ],
      "min": [
        -232.0,
        0.0,
        -232.0
      ],
      "type": "VEC3"
    },
    {
      "bufferView": 7,
      "componentType": 5121,
      "count": 72,
      "max": [
        128,
        128,
        128
      ],
      "min": [
        128,
        128,
        128
      ],
      "normalized": true,
      "type": "VEC3"
    },
    {
      "bufferView": 8,
      "componentType": 5126,
      "count": 72,
      "max": [
        16.871192932128906,
        0.2188500016927719
      ],
      "min": [
        16.812599182128906,
        9.999999747378752e-05
      ],
      "type": "VEC2"
    },
    {
      "bufferView": 9,
      "componentType": 5126,
      "count": 24,
      "max": [
        185.0,
        0.0,
        185.0
      ],
      "min": [
        -185.0,
        0.0,
        -185.0
      ],
      "type": "VEC3"
    },
    {
      "bufferView": 10,
      "componentType": 5121,
      "count": 24,
      "max": [
        128,
        128,
        128
      ],
      "min": [
        128,
        128,
        128
      ],
      "normalized": true,
      "type": "VEC3"
    },
    {
      "bufferView": 11,
      "componentType": 5126,
      "count": 24,
      "max": [
        16.996192932128906,
        0.9688500165939331
      ],
      "min": [
        16.875099182128906,
        9.999999747378752e-05
      ],
      "type": "VEC2"
    },
    {
      "bufferView": 12,
      "componentType": 5126,
      "count": 72,
      "max": [
        232.0,
        0.0,
        232.0
      ],
      "min": [
        -232.0,
        0.0,
        -232.0
      ],
      "type": "VEC3"
    },
    {
      "bufferView": 13,
      "componentType": 5121,
      "count": 72,
      "max": [
        128,
        128,
        128
      ],
      "min": [
        128,
        128,
        128
      ],
      "normalized": true,
      "type": "VEC3"
    },
    {
      "bufferView": 14,
      "componentType": 5126,
      "count": 72,
      "max": [
        16.839942932128906,
        0.9688500165939331
      ],
      "min": [
        16.812599182128906,
        0.7501000165939331
      ],
      "type": "VEC2"
    },
    {
      "bufferView": 15,
      "componentType": 5126,
      "count": 12,
      "max": [
        0.0,
        0.0,
        -100.0
      ],
      "min": [
        -58.0,
        -100.0,
        -115.0
      ],
      "type": "VEC3"
    },
    {
      "bufferView": 16,
      "componentType": 5121,
      "count": 12,
      "max": [
        128,
        128,
        128
      ],
      "min": [
        128,
        128,
        128
      ],
      "normalized": true,
      "type": "VEC3"
    },
    {
      "bufferView": 17,
      "componentType": 5126,
      "count": 12,
      "max": [
        16.683692932128906,
        0.9688500165939331
      ],
      "min": [
        16.656349182128906,
        0.2500999867916107
      ],
      "type": "VEC2"
    }
  ],
  "asset": {
    "extras": {
      "model_type": "digimon"
    },
    "generator": "DW1ModelConverter v1.2.0",
    "version": "2.0"
  },
  "bufferViews": [
    {
      "buffer": 0,
      "byteLength": 864,
      "byteStride": 12,
      "target": 34962
    },
    {
      "buffer": 1,
      "byteLength": 288,
      "byteStride": 4,
      "target": 34962
    },
    {
      "buffer": 2,
      "byteLength": 576,
      "byteStride": 8,
      "target": 34962
    },
    {
      "buffer": 3,
      "byteLength": 864,
      "byteStride": 12,
      "target": 34962
    },
    {
      "buffer": 4,
      "byteLength": 288,
      "byteStride": 4,
      "target": 34962
    },
    {
      "buffer": 5,
      "byteLength": 576,
      "byteStride": 8,
      "target": 34962
    },
    {
      "buffer": 6,
      "byteLength": 864,
      "byteStride": 12,
      "target": 34962
    },
    {
      "buffer": 7,
      "byteLength": 288,
      "byteStride": 4,
      "target": 34962
    },
    {
      "buffer": 8,
      "byteLength": 576,
      "byteStride": 8,
      "target": 34962
    },
    {
      "buffer": 9,
      "byteLength": 288,
      "byteStride": 12,
      "target": 34962
    },
    {
      "buffer": 10,
      "byteLength": 96,
      "byteStride": 4,
      "target": 34962
    },
    {
      "buffer": 11,
      "byteLength": 192,
      "byteStride": 8,
      "target": 34962
    },
    {
      "buffer": 12,
      "byteLength": 864,
      "byteStride": 12,
      "target": 34962
    },
    {
      "buffer": 13,
      "byteLength": 288,
      "byteStride": 4,
      "target": 34962
    },
    {
      "buffer": 14,
      "byteLength": 576,
      "byteStride": 8,
      "target": 34962
    },
    {
      "buffer": 15,
      "byteLength": 144,
      "byteStride": 12,
      "target": 34962
    },
    {
      "buffer": 16,
      "byteLength": 48,
      "byteStride": 4,
      "target": 34962
    },
    {
      "buffer": 17,
      "byteLength": 96,
      "byteStride": 8,
      "target": 34962
    }
  ],
  "buffers": [
    {
      "byteLength": 864,
      "uri": "data:application/octet-stream;base64,"
    },
    {
      "byteLength": 288,
      "uri": "data:application/octet-stream;base64,"
    },
    {
      "byteLength": 576,
      "uri": "data:application/octet-stream;base64,"
    },
    {
      "byteLength": 864,
      "uri": "data:application/octet-stream;base64,"
    },
    {
      "byteLength": 288,
      "uri": "data:application/octet-stream;base64,"
    },
    {
      "byteLength": 576,
      "uri": "data:application/octet-stream;base64,"
    },
    {
      "byteLength": 864,
      "uri": "data:application/octet-stream;base64,"
    },
    {
      "byteLength": 288,
      "uri": "data:application/octet-stream;base64,"
    },
    {
      "byteLength": 576,
      "uri": "data:application/octet-stream;base64,"
    },
    {
      "byteLength": 288,
      "uri": "data:application/octet-stream;base64,"
    },
    {
      "byteLength": 96,
      "uri": "data:application/octet-stream;base64,"
    },
    {
      "byteLength": 192,
      "uri": "data:application/octet-stream;base64,"
    },
    {
      "byteLength": 864,
      "uri": "data:application/octet-stream;base64,"
    },
    {
      "byteLength": 288,
      "uri": "data:application/octet-stream;base64,"
    },
    {
      "byteLength": 576,
      "uri": "data:application/octet-stream;base64,"
    },
    {
      "byteLength": 144,
      "uri": "data:application/octet-stream;base64,"
    },
    {
      "byteLength": 48,
      "uri": "data:application/octet-stream;base64,"
    },
    {
      "byteLength": 96,
      "uri": "data:application/octet-stream;base64,"
    }
  ],
  "extensionsUsed": [
    "KHR_materials_unlit"
  ],
  "images": [
    {
      "name": "texture",
      "uri": "data:image/png;base64,"
    }
  ],
  "materials": [
    {
      "alphaMode": "BLEND",
      "extensions": {
        "KHR_materials_unlit": {}
      },
      "extras": {
        "blendMode": "1"
      },
      "pbrMetallicRoughness": {
        "baseColorTexture": {
          "index": 0
        },
        "metallicFactor": 0.0
      }
    },
    {
      "alphaCutoff": 0.10000000149011612,
      "alphaMode": "MASK",
      "extensions": {
        "KHR_materials_unlit": {}
      },
      "pbrMetallicRoughness": {
        "baseColorTexture": {
          "index": 0
        },
        "metallicFactor": 0.0
      }
    }
  ],
  "meshes": [
    {
      "primitives": [
        {
          "attributes": {
            "COLOR_0": 1,
            "POSITION": 0,
            "TEXCOORD_0": 2
          },
          "material": 0,
          "mode": 4
        }
      ]
    },
    {
      "primitives": [
        {
          "attributes": {
            "COLOR_0": 4,
            "POSITION": 3,
            "TEXCOORD_0": 5
          },
          "material": 0,
          "mode": 4
        }
      ]
    },
    {
      "primitives": [
        {
          "attributes": {
            "COLOR_0": 7,
            "POSITION": 6,
            "TEXCOORD_0": 8
          },
          "material": 0,
          "mode": 4
        }
      ]
    },
    {
      "primitives": [
        {
          "attributes": {
            "COLOR_0": 10,
            "POSITION": 9,
            "TEXCOORD_0": 11
          },
          "material": 0,
          "mode": 4
        }
      ]
    },
    {
      "primitives": [
        {
          "attributes": {
            "COLOR_0": 13,
            "POSITION": 12,
            "TEXCOORD_0": 14
          },
          "material": 0,
          "mode": 4
        }
      ]
    },
    {
      "primitives": [
        {
          "attributes": {
            "COLOR_0": 16,
            "POSITION": 15,
            "TEXCOORD_0": 17
          },
          "material": 1,
          "mode": 4
        }
      ]
    }
  ],
  "nodes": [
    {
      "mesh": 0
    },
    {
      "mesh": 1
    },
    {
      "mesh": 2
    },
    {
      "mesh": 3
    },
    {
      "mesh": 4
    },
    {
      "mesh": 5
    }
  ],
  "samplers": [
    {
      "magFilter": 9728,
      "minFilter": 9728,
      "wrapS": 10497,
      "wrapT": 10497
    }
  ],
  "scene": 0,
  "scenes": [
    {
      "nodes": [
        0,
        1,
        2,
        3,
        4,
        5
      ]
    }
  ],
  "textures": [
    {
      "sampler": 0,
      "source": 0
    }
  ]
}
