{
  "accessors": [
    {
      "bufferView": 0,
      "componentType": 5126,
      "count": 318,
      "max": [
        120.0,
        0.0,
        104.0
      ],
      "min": [
        -120.0,
        -248.0,
        -104.0
      ],
      "type": "VEC3"
    },
    {
      "bufferView": 1,
      "componentType": 5126,
      "count": 318,
      "max": [
        0.9619140625,
        0.962890625,
        0.833251953125
      ],
      "min": [
        -0.9619140625,
        -0.956787109375,
        -0.952880859375
      ],
      "type": "VEC3"
    },
    {
      "bufferView": 2,
      "componentType": 5126,
      "count": 318,
      "max": [
        24.26714515686035,
        0.9376000165939331
      ],
      "min": [
        24.227371215820313,
        9.999999747378752e-05
      ],
      "type": "VEC2"
    },
    {
      "bufferView": 3,
      "componentType": 5126,
      "count": 42,
      "max": [
        46.0,
        0.0,
        46.0
      ],
      "min": [
        -46.0,
        -72.0,
        -46.0
      ],
      "type": "VEC3"
    },
    {
      "bufferView": 4,
      "componentType": 5126,
      "count": 42,
      "max": [
        0.84423828125,
        1.0,
        0.84423828125
      ],
      "min": [
        -0.84423828125,
        -0.77197265625,
        -0.84423828125
      ],
      "type": "VEC3"
    },
    {
      "bufferView": 5,
      "componentType": 5126,
      "count": 42,
      "max": [
        24.221689224243164,
        0.9688500165939331
      ],
      "min": [
        24.181917190551758,
        9.999999747378752e-05
      ],
      "type": "VEC2"
    }
  ],
  "asset": {
    "extras": {
      "model_type": "digimon"
    },
    "generator": "DW1ModelConverter v1.2.0",
    "version": "2.0"
  },
  "bufferViews": [
    {
      "buffer": 0,
      "byteLength": 3816,
      "byteStride": 12,
      "target": 34962
    },
    {
      "buffer": 1,
      "byteLength": 3816,
      "byteStride": 12,
      "target": 34962
    },
    {
      "buffer": 2,
      "byteLength": 2544,
      "byteStride": 8,
      "target": 34962
    },
    {
      "buffer": 3,
      "byteLength": 504,
      "byteStride": 12,
      "target": 34962
    },
    {
      "buffer": 4,
      "byteLength": 504,
      "byteStride": 12,
      "target": 34962
    },
    {
      "buffer": 5,
      "byteLength": 336,
      "byteStride": 8,
      "target": 34962
    }
  ],
  "buffers": [
    {
      "byteLength": 3816,
      "uri": "data:application/octet-stream;base64,"
    },
    {
      "byteLength": 3816,
      "uri": "data:application/octet-stream;base64,"
    },
    {
      "byteLength": 2544,
      "uri": "data:application/octet-stream;base64,"
    },
    {
      "byteLength": 504,
      "uri": "data:application/octet-stream;base64,"
    },
    {
      "byteLength": 504,
      "uri": "data:application/octet-stream;base64,"
    },
    {
      "byteLength": 336,
      "uri": "data:application/octet-stream;base64,"
    }
  ],
  "images": [
    {
      "name": "texture",
      "uri": "data:image/png;base64,"
    }
  ],
  "materials": [
    {
      "alphaCutoff": 0.10000000149011612,
      "alphaMode": "MASK",
      "pbrMetallicRoughness": {
        "baseColorTexture": {
          "index": 0
        },
        "metallicFactor": 0.0
      }
    }
  ],
  "meshes": [
    {
      "primitives": [
        {
          "attributes": {
            "NORMAL": 1,
            "POSITION": 0,
            "TEXCOORD_0": 2
          },
          "material": 0,
          "mode": 4
        }
      ]
    },
    {
      "primitives": [
        {
          "attributes": {
            "NORMAL": 4,
            "POSITION": 3,
            "TEXCOORD_0": 5
          },
          "material": 0,
          "mode": 4
        }
      ]
    }
  ],
  "nodes": [
    {
      "mesh": 0
    },
    {
      "mesh": 1
    }
  ],
  "samplers": [
    {
      "magFilter": 9728,
      "minFilter": 9728,
      "wrapS": 10497,
      "wrapT": 10497
    }
  ],
  "scene": 0,
  "scenes": [
    {
      "nodes": [
        0,
        1
      ]
    }
  ],
  "textures": [
    {
      "sampler": 0,
      "source": 0
    }
  ]
}
