{
  "accessors": [
    {
      "bufferView": 0,
      "componentType": 5126,
      "count": 108,
      "max": [
        45.0,
        45.0,
        39.0
      ],
      "min": [
        -45.0,
        -45.0,
        -39.0
      ],
      "type": "VEC3"
    },
    {
      "bufferView": 1,
      "componentType": 5126,
      "count": 108,
      "max": [
        1.0,
        1.0,
        0.865966796875
      ],
      "min": [
        -1.0,
        -1.0,
        -0.865966796875
      ],
      "type": "VEC3"
    },
    {
      "bufferView": 2,
      "componentType": 5126,
      "count": 108,
      "max": [
        16.308692932128906,
        0.9688500165939331
      ],
      "min": [
        16.000099182128906,
        9.999999747378752e-05
      ],
      "type": "VEC2"
    },
    {
      "bufferView": 3,
      "componentType": 5126,
      "count": 144,
      "max": [
        28.0,
        -32.0,
        63.0
      ],
      "min": [
        -28.0,
        -71.0,
        -4.0
      ],
      "type": "VEC3"
    },
    {
      "bufferView": 4,
      "componentType": 5126,
      "count": 144,
      "max": [
        0.929931640625,
        0.98095703125,
        0.9140625
      ],
      "min": [
        -0.929931640625,
        -0.66455078125,
        -0.88232421875
      ],
      "type": "VEC3"
    },
    {
      "bufferView": 5,
      "componentType": 5126,
      "count": 144,
      "max": [
        16.527442932128906,
        0.9688500165939331
      ],
      "min": [
        16.500099182128906,
        0.7501000165939331
      ],
      "type": "VEC2"
    },
    {
      "bufferView": 6,
      "componentType": 5126,
      "count": 144,
      "max": [
        28.0,
        -32.0,
        43.0
      ],
      "min": [
        -28.0,
        -82.0,
        -4.0
      ],
      "type": "VEC3"
    },
    {
      "bufferView": 7,
      "componentType": 5126,
      "count": 144,
      "max": [
        0.935302734375,
        0.912841796875,
        0.99072265625
      ],
      "min": [
        -0.930419921875,
        -0.697998046875,
        -0.84814453125
      ],
      "type": "VEC3"
    },
    {
      "bufferView": 8,
      "componentType": 5126,
      "count": 144,
      "max": [
        16.527442932128906,
        0.9688500165939331
      ],
      "min": [
        16.500099182128906,
        0.7501000165939331
      ],
      "type": "VEC2"
    },
    {
      "bufferView": 9,
      "componentType": 5126,
      "count": 72,
      "max": [
        133.0,
        22.0,
        84.0
      ],
      "min": [
        -133.0,
        -82.0,
        -13.0
      ],
      "type": "VEC3"
    },
    {
      "bufferView": 10,
      "componentType": 5126,
      "count": 72,
      "max": [
        0.8359375,
        0.5,
        0.939697265625
      ],
      "min": [
        -0.8359375,
        -0.5,
        -0.939697265625
      ],
      "type": "VEC3"
    },
    {
      "bufferView": 11,
      "componentType": 5126,
      "count": 72,
      "max": [
        16.492286682128906,
        0.9688500165939331
      ],
      "min": [
        16.312599182128906,
        9.999999747378752e-05
      ],
      "type": "VEC2"
    },
    {
      "bufferView": 12,
      "componentType": 5126,
      "count": 72,
      "max": [
        133.0,
        28.0,
        30.0
      ],
      "min": [
        -133.0,
        -66.0,
        -93.0
      ],
      "type": "VEC3"
    },
    {
      "bufferView": 13,
      "componentType": 5126,
      "count": 72,
      "max": [
        0.833251953125,
        0.718994140625,
        0.764404296875
      ],
      "min": [
        -0.833251953125,
        -0.718994140625,
        -0.764404296875
      ],
      "type": "VEC3"
    },
    {
      "bufferView": 14,
      "componentType": 5126,
      "count": 72,
      "max": [
        16.492286682128906,
        0.9688500165939331
      ],
      "min": [
        16.312599182128906,
        9.999999747378752e-05
      ],
      "type": "VEC2"
    },
    {
      "bufferView": 15,
      "componentType": 5126,
      "count": 96,
      "max": [
        110.0,
        0.0,
        110.0
      ],
      "min": [
        -110.0,
        -400.0,
        -110.0
      ],
      "type": "VEC3"
    },
    {
      "bufferView": 16,
      "componentType": 5121,
      "count": 96,
      "max": [
        128,
        128,
        128
      ],
      "min": [
        128,
        128,
        128
      ],
      "normalized": true,
      "type": "VEC3"
    },
    {
      "bufferView": 17,
      "componentType": 5126,
      "count": 96,
      "max": [
        16.996192932128906,
        0.9688500165939331
      ],
      "min": [
        16.937599182128906,
        9.999999747378752e-05
      ],
      "type": "VEC2"
    }
  ],
  "asset": {
    "extras": {
      "model_type": "digimon"
    },
    "generator": "DW1ModelConverter v1.2.0",
    "version": "2.0"
  },
  "bufferViews": [
    {
      "buffer": 0,
      "byteLength": 1296,
      "byteStride": 12,
      "target": 34962
    },
    {
      "buffer": 1,
      "byteLength": 1296,
      "byteStride": 12,
      "target": 34962
    },
    {
      "buffer": 2,
      "byteLength": 864,
      "byteStride": 8,
      "target": 34962
    },
    {
      "buffer": 3,
      "byteLength": 1728,
      "byteStride": 12,
      "target": 34962
    },
    {
      "buffer": 4,
      "byteLength": 1728,
      "byteStride": 12,
      "target": 34962
    },
    {
      "buffer": 5,
      "byteLength": 1152,
      "byteStride": 8,
      "target": 34962
    },
    {
      "buffer": 6,
      "byteLength": 1728,
      "byteStride": 12,
      "target": 34962
    },
    {
      "buffer": 7,
      "byteLength": 1728,
      "byteStride": 12,
      "target": 34962
    },
    {
      "buffer": 8,
      "byteLength": 1152,
      "byteStride": 8,
      "target": 34962
    },
    {
      "buffer": 9,
      "byteLength": 864,
      "byteStride": 12,
      "target": 34962
    },
    {
      "buffer": 10,
      "byteLength": 864,
      "byteStride": 12,
      "target": 34962
    },
    {
      "buffer": 11,
      "byteLength": 576,
      "byteStride": 8,
      "target": 34962
    },
    {
      "buffer": 12,
      "byteLength": 864,
      "byteStride": 12,
      "target": 34962
    },
    {
      "buffer": 13,
      "byteLength": 864,
      "byteStride": 12,
      "target": 34962
    },
    {
      "buffer": 14,
      "byteLength": 576,
      "byteStride": 8,
      "target": 34962
    },
    {
      "buffer": 15,
      "byteLength": 1152,
      "byteStride": 12,
      "target": 34962
    },
    {
      "buffer": 16,
      "byteLength": 384,
      "byteStride": 4,
      "target": 34962
    },
    {
      "buffer": 17,
      "byteLength": 768,
      "byteStride": 8,
      "target": 34962
    }
  ],
  "buffers": [
    {
      "byteLength": 1296,
      "uri": "data:application/octet-stream;base64,"
    },
    {
      "byteLength": 1296,
      "uri": "data:application/octet-stream;base64,"
    },
    {
      "byteLength": 864,
      "uri": "data:application/octet-stream;base64,"
    },
    {
      "byteLength": 1728,
      "uri": "data:application/octet-stream;base64,"
    },
    {
      "byteLength": 1728,
      "uri": "data:application/octet-stream;base64,"
    },
    {
      "byteLength": 1152,
      "uri": "data:application/octet-stream;base64,"
    },
    {
      "byteLength": 1728,
      "uri": "data:application/octet-stream;base64,"
    },
    {
      "byteLength": 1728,
      "uri": "data:application/octet-stream;base64,"
    },
    {
      "byteLength": 1152,
      "uri": "data:application/octet-stream;base64,"
    },
    {
      "byteLength": 864,
      "uri": "data:application/octet-stream;base64,"
    },
    {
      "byteLength": 864,
      "uri": "data:application/octet-stream;base64,"
    },
    {
      "byteLength": 576,
      "uri": "data:application/octet-stream;base64,"
    },
    {
      "byteLength": 864,
      "uri": "data:application/octet-stream;base64,"
    },
    {
      "byteLength": 864,
      "uri": "data:application/octet-stream;base64,"
    },
    {
      "byteLength": 576,
      "uri": "data:application/octet-stream;base64,"
    },
    {
      "byteLength": 1152,
      "uri": "data:application/octet-stream;base64,"
    },
    {
      "byteLength": 384,
      "uri": "data:application/octet-stream;base64,"
    },
    {
      "byteLength": 768,
      "uri": "data:application/octet-stream;base64,"
    }
  ],
  "extensionsUsed": [
    "KHR_materials_unlit"
  ],
  "images": [
    {
      "name": "texture",
      "uri": "data:image/png;base64,"
    }
  ],
  "materials": [
    {
      "alphaCutoff": 0.10000000149011612,
      "alphaMode": "MASK",
      "pbrMetallicRoughness": {
        "baseColorTexture": {
          "index": 0
        },
        "metallicFactor": 0.0
      }
    },
    {
      "alphaMode": "BLEND",
      "extensions": {
        "KHR_materials_unlit": {}
      },
      "extras": {
        "blendMode": "1"
      },
      "pbrMetallicRoughness": {
        "baseColorTexture": {
          "index": 0
        },
        "metallicFactor": 0.0
      }
    }
  ],
  "meshes": [
    {
      "primitives": [
        {
          "attributes": {
            "NORMAL": 1,
            "POSITION": 0,
            "TEXCOORD_0": 2
          },
          "material": 0,
          "mode": 4
        }
      ]
    },
    {
      "primitives": [
        {
          "attributes": {
            "NORMAL": 4,
            "POSITION": 3,
            "TEXCOORD_0": 5
          },
          "material": 0,
          "mode": 4
        }
      ]
    },
    {
      "primitives": [
        {
          "attributes": {
            "NORMAL": 7,
            "POSITION": 6,
            "TEXCOORD_0": 8
          },
          "material": 0,
          "mode": 4
        }
      ]
    },
    {
      "primitives": [
        {
          "attributes": {
            "NORMAL": 10,
            "POSITION": 9,
            "TEXCOORD_0": 11
          },
          "material": 0,
          "mode": 4
        }
      ]
    },
    {
      "primitives": [
        {
          "attributes": {
            "NORMAL": 13,
            "POSITION": 12,
            "TEXCOORD_0": 14
          },
          "material": 0,
          "mode": 4
        }
      ]
    },
    {
      "primitives": [
        {
          "attributes": {
            "COLOR_0": 16,
            "POSITION": 15,
            "TEXCOORD_0": 17
          },
          "material": 1,
          "mode": 4
        }
      ]
    }
  ],
  "nodes": [
    {
      "mesh": 0
    },
    {
      "mesh": 1
    },
    {
      "mesh": 2
    },
    {
      "mesh": 3
    },
    {
      "mesh": 4
    },
    {
      "mesh": 5
    }
  ],
  "samplers": [
    {
      "magFilter": 9728,
      "minFilter": 9728,
      "wrapS": 10497,
      "wrapT": 10497
    }
  ],
  "scene": 0,
  "scenes": [
    {
      "nodes": [
        0,
        1,
        2,
        3,
        4,
        5
      ]
    }
  ],
  "textures": [
    {
      "sampler": 0,
      "source": 0
    }
  ]
}
