{
  "accessors": [
    {
      "bufferView": 0,
      "componentType": 5126,
      "count": 78,
      "max": [
        79.0,
        70.0,
        110.0
      ],
      "min": [
        -84.0,
        -69.0,
        -77.0
      ],
      "type": "VEC3"
    },
    {
      "bufferView": 1,
      "componentType": 5121,
      "count": 78,
      "max": [
        128,
        128,
        128
      ],
      "min": [
        128,
        128,
        128
      ],
      "normalized": true,
      "type": "VEC3"
    },
    {
      "bufferView": 2,
      "componentType": 5126,
      "count": 78,
      "max": [
        18.65096092224121,
        0.9688500165939331
      ],
      "min": [
        18.344926834106445,
        9.999999747378752e-05
      ],
      "type": "VEC2"
    },
    {
      "bufferView": 3,
      "componentType": 5126,
      "count": 15,
      "max": [
        79.0,
        43.0,
        37.0
      ],
      "min": [
        -84.0,
        -69.0,
        -52.0
      ],
      "type": "VEC3"
    },
    {
      "bufferView": 4,
      "componentType": 5126,
      "count": 15,
      "max": [
        -0.01220703125,
        -0.45166015625,
        0.874755859375
      ],
      "min": [
        -0.241943359375,
        -0.6474609375,
        0.75048828125
      ],
      "type": "VEC3"
    },
    {
      "bufferView": 5,
      "componentType": 5126,
      "count": 15,
      "max": [
        18.607858657836914,
        0.8751000165939331
      ],
      "min": [
        18.5992374420166,
        0.8126000165939331
      ],
      "type": "VEC2"
    },
    {
      "bufferView": 6,
      "componentType": 5126,
      "count": 51,
      "max": [
        79.0,
        70.0,
        110.0
      ],
      "min": [
        -84.0,
        -69.0,
        -52.0
      ],
      "type": "VEC3"
    },
    {
      "bufferView": 7,
      "componentType": 5121,
      "count": 51,
      "max": [
        128,
        128,
        128
      ],
      "min": [
        128,
        128,
        128
      ],
      "normalized": true,
      "type": "VEC3"
    },
    {
      "bufferView": 8,
      "componentType": 5126,
      "count": 51,
      "max": [
        18.65096092224121,
        0.9688500165939331
      ],
      "min": [
        18.344926834106445,
        9.999999747378752e-05
      ],
      "type": "VEC2"
    },
    {
      "bufferView": 9,
      "componentType": 5126,
      "count": 120,
      "max": [
        410.0,
        -1.0,
        390.0
      ],
      "min": [
        -410.0,
        -84.0,
        -390.0
      ],
      "type": "VEC3"
    },
    {
      "bufferView": 10,
      "componentType": 5121,
      "count": 120,
      "max": [
        128,
        128,
        128
      ],
      "min": [
        128,
        128,
        128
      ],
      "normalized": true,
      "type": "VEC3"
    },
    {
      "bufferView": 11,
      "componentType": 5126,
      "count": 120,
      "max": [
        18.064754486083984,
        0.9688500165939331
      ],
      "min": [
        17.931133270263672,
        9.999999747378752e-05
      ],
      "type": "VEC2"
    },
    {
      "bufferView": 12,
      "componentType": 5126,
      "count": 96,
      "max": [
        72.0,
        72.0,
        57.0
      ],
      "min": [
        -72.0,
        -72.0,
        0.0
      ],
      "type": "VEC3"
    },
    {
      "bufferView": 13,
      "componentType": 5121,
      "count": 96,
      "max": [
        128,
        128,
        128
      ],
      "min": [
        128,
        128,
        128
      ],
      "normalized": true,
      "type": "VEC3"
    },
    {
      "bufferView": 14,
      "componentType": 5126,
      "count": 96,
      "max": [
        18.202686309814453,
        0.9688500165939331
      ],
      "min": [
        18.06906509399414,
        9.999999747378752e-05
      ],
      "type": "VEC2"
    },
    {
      "bufferView": 15,
      "componentType": 5126,
      "count": 96,
      "max": [
        72.0,
        72.0,
        57.0
      ],
      "min": [
        -72.0,
        -72.0,
        0.0
      ],
      "type": "VEC3"
    },
    {
      "bufferView": 16,
      "componentType": 5121,
      "count": 96,
      "max": [
        128,
        128,
        128
      ],
      "min": [
        128,
        128,
        128
      ],
      "normalized": true,
      "type": "VEC3"
    },
    {
      "bufferView": 17,
      "componentType": 5126,
      "count": 96,
      "max": [
        18.202686309814453,
        0.9688500165939331
      ],
      "min": [
        18.06906509399414,
        9.999999747378752e-05
      ],
      "type": "VEC2"
    }
  ],
  "asset": {
    "extras": {
      "model_type": "digimon"
    },
    "generator": "DW1ModelConverter v1.2.0",
    "version": "2.0"
  },
  "bufferViews": [
    {
      "buffer": 0,
      "byteLength": 936,
      "byteStride": 12,
      "target": 34962
    },
    {
      "buffer": 1,
      "byteLength": 312,
      "byteStride": 4,
      "target": 34962
    },
    {
      "buffer": 2,
      "byteLength": 624,
      "byteStride": 8,
      "target": 34962
    },
    {
      "buffer": 3,
      "byteLength": 180,
      "byteStride": 12,
      "target": 34962
    },
    {
      "buffer": 4,
      "byteLength": 180,
      "byteStride": 12,
      "target": 34962
    },
    {
      "buffer": 5,
      "byteLength": 120,
      "byteStride": 8,
      "target": 34962
    },
    {
      "buffer": 6,
      "byteLength": 612,
      "byteStride": 12,
      "target": 34962
    },
    {
      "buffer": 7,
      "byteLength": 204,
      "byteStride": 4,
      "target": 34962
    },
    {
      "buffer": 8,
      "byteLength": 408,
      "byteStride": 8,
      "target": 34962
    },
    {
      "buffer": 9,
      "byteLength": 1440,
      "byteStride": 12,
      "target": 34962
    },
    {
      "buffer": 10,
      "byteLength": 480,
      "byteStride": 4,
      "target": 34962
    },
    {
      "buffer": 11,
      "byteLength": 960,
      "byteStride": 8,
      "target": 34962
    },
    {
      "buffer": 12,
      "byteLength": 1152,
      "byteStride": 12,
      "target": 34962
    },
    {
      "buffer": 13,
      "byteLength": 384,
      "byteStride": 4,
      "target": 34962
    },
    {
      "buffer": 14,
      "byteLength": 768,
      "byteStride": 8,
      "target": 34962
    },
    {
      "buffer": 15,
      "byteLength": 1152,
      "byteStride": 12,
      "target": 34962
    },
    {
      "buffer": 16,
      "byteLength": 384,
      "byteStride": 4,
      "target": 34962
    },
    {
      "buffer": 17,
      "byteLength": 768,
      "byteStride": 8,
      "target": 34962
    }
  ],
  "buffers": [
    {
      "byteLength": 936,
      "uri": "data:application/octet-stream;base64,"
    },
    {
      "byteLength": 312,
      "uri": "data:application/octet-stream;base64,"
    },
    {
      "byteLength": 624,
      "uri": "data:application/octet-stream;base64,"
    },
    {
      "byteLength": 180,
      "uri": "data:application/octet-stream;base64,"
    },
    {
      "byteLength": 180,
      "uri": "data:application/octet-stream;base64,"
    },
    {
      "byteLength": 120,
      "uri": "data:application/octet-stream;base64,"
    },
    {
      "byteLength": 612,
      "uri": "data:application/octet-stream;base64,"
    },
    {
      "byteLength": 204,
      "uri": "data:application/octet-stream;base64,"
    },
    {
      "byteLength": 408,
      "uri": "data:application/octet-stream;base64,"
    },
    {
      "byteLength": 1440,
      "uri": "data:application/octet-stream;base64,"
    },
    {
      "byteLength": 480,
      "uri": "data:application/octet-stream;base64,"
    },
    {
      "byteLength": 960,
      "uri": "data:application/octet-stream;base64,"
    },
    {
      "byteLength": 1152,
      "uri": "data:application/octet-stream;base64,"
    },
    {
      "byteLength": 384,
      "uri": "data:application/octet-stream;base64,"
    },
    {
      "byteLength": 768,
      "uri": "data:application/octet-stream;base64,"
    },
    {
      "byteLength": 1152,
      "uri": "data:application/octet-stream;base64,"
    },
    {
      "byteLength": 384,
      "uri": "data:application/octet-stream;base64,"
    },
    {
      "byteLength": 768,
      "uri": "data:application/octet-stream;base64,"
    }
  ],
  "extensionsUsed": [
    "KHR_materials_unlit"
  ],
  "images": [
    {
      "name": "texture",
      "uri": "data:image/png;base64,"
    }
  ],
  "materials": [
    {
      "alphaMode": "BLEND",
      "extensions": {
        "KHR_materials_unlit": {}
      },
      "extras": {
        "blendMode": "1"
      },
      "pbrMetallicRoughness": {
        "baseColorTexture": {
          "index": 0
        },
        "metallicFactor": 0.0
      }
    },
    {
      "alphaMode": "BLEND",
      "extras": {
        "blendMode": "3"
      },
      "pbrMetallicRoughness": {
        "baseColorTexture": {
          "index": 0
        },
        "metallicFactor": 0.0
      }
    },
    {
      "alphaMode": "BLEND",
      "extensions": {
        "KHR_materials_unlit": {}
      },
      "extras": {
        "blendMode": "3"
      },
      "pbrMetallicRoughness": {
        "baseColorTexture": {
          "index": 0
        },
        "metallicFactor": 0.0
      }
    }
  ],
  "meshes": [
    {
      "primitives": [
        {
          "attributes": {
            "COLOR_0": 1,
            "POSITION": 0,
            "TEXCOORD_0": 2
          },
          "material": 0,
          "mode": 4
        },
        {
          "attributes": {
            "NORMAL": 4,
            "POSITION": 3,
            "TEXCOORD_0": 5
          },
          "material": 1,
          "mode": 4
        },
        {
          "attributes": {
            "COLOR_0": 7,
            "POSITION": 6,
            "TEXCOORD_0": 8
          },
          "material": 2,
          "mode": 4
        }
      ]
    },
    {
      "primitives": [
        {
          "attributes": {
            "COLOR_0": 10,
            "POSITION": 9,
            "TEXCOORD_0": 11
          },
          "material": 0,
          "mode": 4
        }
      ]
    },
    {
      "primitives": [
        {
          "attributes": {
            "COLOR_0": 13,
            "POSITION": 12,
            "TEXCOORD_0": 14
          },
          "material": 0,
          "mode": 4
        }
      ]
    },
    {
      "primitives": [
        {
          "attributes": {
            "COLOR_0": 16,
            "POSITION": 15,
            "TEXCOORD_0": 17
          },
          "material": 0,
          "mode": 4
        }
      ]
    }
  ],
  "nodes": [
    {
      "mesh": 0
    },
    {
      "mesh": 1
    },
    {
      "mesh": 2
    },
    {
      "mesh": 3
    }
  ],
  "samplers": [
    {
      "magFilter": 9728,
      "minFilter": 9728,
      "wrapS": 10497,
      "wrapT": 10497
    }
  ],
  "scene": 0,
  "scenes": [
    {
      "nodes": [
        0,
        1,
        2,
        3
      ]
    }
  ],
  "textures": [
    {
      "sampler": 0,
      "source": 0
    }
  ]
}
