{
  "accessors": [
    {
      "bufferView": 0,
      "componentType": 5126,
      "count": 6,
      "max": [
        1946.0,
        2547.0,
        1946.0
      ],
      "min": [
        -1946.0,
        2547.0,
        -1946.0
      ],
      "type": "VEC3"
    },
    {
      "bufferView": 1,
      "componentType": 5126,
      "count": 6,
      "max": [
        0.0,
        1.0,
        0.0
      ],
      "min": [
        0.0,
        1.0,
        0.0
      ],
      "type": "VEC3"
    },
    {
      "bufferView": 2,
      "componentType": 5126,
      "count": 6,
      "max": [
        0.4766624867916107,
        0.2461937516927719
      ],
      "min": [
        9.999999747378752e-05,
        9.999999747378752e-05
      ],
      "type": "VEC2"
    },
    {
      "bufferView": 3,
      "componentType": 5126,
      "count": 6,
      "max": [
        0.515625,
        0.953125
      ],
      "min": [
        0.515625,
        0.953125
      ],
      "type": "VEC2"
    },
    {
      "bufferView": 4,
      "componentType": 5126,
      "count": 81,
      "max": [
        1946.0,
        2944.0,
        1946.0
      ],
      "min": [
        -1946.0,
        0.0,
        -1946.0
      ],
      "type": "VEC3"
    },
    {
      "bufferView": 5,
      "componentType": 5126,
      "count": 81,
      "max": [
        0.94091796875,
        1.0,
        0.800537109375
      ],
      "min": [
        -0.94091796875,
        0.14404296875,
        -0.989501953125
      ],
      "type": "VEC3"
    },
    {
      "bufferView": 6,
      "componentType": 5126,
      "count": 81,
      "max": [
        0.7344750165939331,
        0.4961937367916107
      ],
      "min": [
        9.999999747378752e-05,
        9.999999747378752e-05
      ],
      "type": "VEC2"
    },
    {
      "bufferView": 7,
      "componentType": 5126,
      "count": 81,
      "max": [
        0.015625,
        0.953125
      ],
      "min": [
        0.015625,
        0.890625
      ],
      "type": "VEC2"
    },
    {
      "bufferView": 8,
      "componentType": 5126,
      "count": 15,
      "max": [
        0.46666666865348816
      ],
      "min": [
        0.0
      ],
      "type": "SCALAR"
    },
    {
      "bufferView": 9,
      "componentType": 5126,
      "count": 15,
      "max": [
        0.0,
        -0.0,
        -0.0
      ],
      "min": [
        0.0,
        -0.0,
        -0.0
      ],
      "type": "VEC3"
    },
    {
      "bufferView": 10,
      "componentType": 5126,
      "count": 15,
      "max": [
        0.46666666865348816
      ],
      "min": [
        0.0
      ],
      "type": "SCALAR"
    },
    {
      "bufferView": 11,
      "componentType": 5126,
      "count": 15,
      "max": [
        0.9987585544586182,
        0.9951333403587341,
        0.9883275628089905,
        0.9792489409446716
      ],
      "min": [
        -0.0,
        -0.7071067690849304,
        0.0,
        0.7071067690849304
      ],
      "type": "VEC4"
    },
    {
      "bufferView": 12,
      "componentType": 5126,
      "count": 15,
      "max": [
        0.46666666865348816
      ],
      "min": [
        0.0
      ],
      "type": "SCALAR"
    },
    {
      "bufferView": 13,
      "componentType": 5126,
      "count": 15,
      "max": [
        0.9999492168426514,
        1.0,
        0.9999492168426514
      ],
      "min": [
        0.009728934615850449,
        0.009765625,
        0.009728934615850449
      ],
      "type": "VEC3"
    },
    {
      "bufferView": 14,
      "componentType": 5126,
      "count": 15,
      "max": [
        0.46666666865348816
      ],
      "min": [
        0.0
      ],
      "type": "SCALAR"
    },
    {
      "bufferView": 15,
      "componentType": 5126,
      "count": 15,
      "max": [
        0.0,
        -0.0,
        -0.0
      ],
      "min": [
        0.0,
        -0.0,
        -0.0
      ],
      "type": "VEC3"
    },
    {
      "bufferView": 16,
      "componentType": 5126,
      "count": 15,
      "max": [
        0.46666666865348816
      ],
      "min": [
        0.0
      ],
      "type": "SCALAR"
    },
    {
      "bufferView": 17,
      "componentType": 5126,
      "count": 15,
      "max": [
        0.9992995858192444,
        0.9815139770507813,
        0.9293652772903442,
        0.9902830123901367
      ],
      "min": [
        -0.0,
        -0.8158227205276489,
        0.0,
        -0.369161456823349
      ],
      "type": "VEC4"
    },
    {
      "bufferView": 18,
      "componentType": 5126,
      "count": 15,
      "max": [
        0.46666666865348816
      ],
      "min": [
        0.0
      ],
      "type": "SCALAR"
    },
    {
      "bufferView": 19,
      "componentType": 5126,
      "count": 15,
      "max": [
        0.9999805688858032,
        1.0,
        0.9999805688858032
      ],
      "min": [
        0.009747297503054142,
        0.009765625,
        0.009747297503054142
      ],
      "type": "VEC3"
    }
  ],
  "animations": [
    {
      "channels": [
        {
          "sampler": 0,
          "target": {
            "node": 0,
            "path": "translation"
          }
        },
        {
          "sampler": 1,
          "target": {
            "node": 0,
            "path": "rotation"
          }
        },
        {
          "sampler": 2,
          "target": {
            "node": 0,
            "path": "scale"
          }
        },
        {
          "sampler": 3,
          "target": {
            "node": 1,
            "path": "translation"
          }
        },
        {
          "sampler": 4,
          "target": {
            "node": 1,
            "path": "rotation"
          }
        },
        {
          "sampler": 5,
          "target": {
            "node": 1,
            "path": "scale"
          }
        }
      ],
      "extras": {
        "loop_mask": 10240,
        "termination_mask": 255
      },
      "name": "anim_E",
      "samplers": [
        {
          "input": 8,
          "interpolation": "LINEAR",
          "output": 9
        },
        {
          "input": 10,
          "interpolation": "LINEAR",
          "output": 11
        },
        {
          "input": 12,
          "interpolation": "LINEAR",
          "output": 13
        },
        {
          "input": 14,
          "interpolation": "LINEAR",
          "output": 15
        },
        {
          "input": 16,
          "interpolation": "LINEAR",
          "output": 17
        },
        {
          "input": 18,
          "interpolation": "LINEAR",
          "output": 19
        }
      ]
    }
  ],
  "asset": {
    "generator": "dw2_model_converter v1.0.0",
    "version": "2.0"
  },
  "bufferViews": [
    {
      "buffer": 0,
      "byteLength": 72,
      "target": 34962
    },
    {
      "buffer": 1,
      "byteLength": 72,
      "target": 34962
    },
    {
      "buffer": 2,
      "byteLength": 48,
      "target": 34962
    },
    {
      "buffer": 3,
      "byteLength": 48,
      "target": 34962
    },
    {
      "buffer": 4,
      "byteLength": 972,
      "target": 34962
    },
    {
      "buffer": 5,
      "byteLength": 972,
      "target": 34962
    },
    {
      "buffer": 6,
      "byteLength": 648,
      "target": 34962
    },
    {
      "buffer": 7,
      "byteLength": 648,
      "target": 34962
    },
    {
      "buffer": 8,
      "byteLength": 60
    },
    {
      "buffer": 9,
      "byteLength": 180
    },
    {
      "buffer": 10,
      "byteLength": 60
    },
    {
      "buffer": 11,
      "byteLength": 240
    },
    {
      "buffer": 12,
      "byteLength": 60
    },
    {
      "buffer": 13,
      "byteLength": 180
    },
    {
      "buffer": 14,
      "byteLength": 60
    },
    {
      "buffer": 15,
      "byteLength": 180
    },
    {
      "buffer": 16,
      "byteLength": 60
    },
    {
      "buffer": 17,
      "byteLength": 240
    },
    {
      "buffer": 18,
      "byteLength": 60
    },
    {
      "buffer": 19,
      "byteLength": 180
    }
  ],
  "buffers": [
    {
      "byteLength": 72,
      "uri": "data:application/octet-stream;base64,"
    },
    {
      "byteLength": 72,
      "uri": "data:application/octet-stream;base64,"
    },
    {
      "byteLength": 48,
      "uri": "data:application/octet-stream;base64,"
    },
    {
      "byteLength": 48,
      "uri": "data:application/octet-stream;base64,"
    },
    {
      "byteLength": 972,
      "uri": "data:application/octet-stream;base64,"
    },
    {
      "byteLength": 972,
      "uri": "data:application/octet-stream;base64,"
    },
    {
      "byteLength": 648,
      "uri": "data:application/octet-stream;base64,"
    },
    {
      "byteLength": 648,
      "uri": "data:application/octet-stream;base64,"
    },
    {
      "byteLength": 60,
      "uri": "data:application/octet-stream;base64,"
    },
    {
      "byteLength": 180,
      "uri": "data:application/octet-stream;base64,"
    },
    {
      "byteLength": 60,
      "uri": "data:application/octet-stream;base64,"
    },
    {
      "byteLength": 240,
      "uri": "data:application/octet-stream;base64,"
    },
    {
      "byteLength": 60,
      "uri": "data:application/octet-stream;base64,"
    },
    {
      "byteLength": 180,
      "uri": "data:application/octet-stream;base64,"
    },
    {
      "byteLength": 60,
      "uri": "data:application/octet-stream;base64,"
    },
    {
      "byteLength": 180,
      "uri": "data:application/octet-stream;base64,"
    },
    {
      "byteLength": 60,
      "uri": "data:application/octet-stream;base64,"
    },
    {
      "byteLength": 240,
      "uri": "data:application/octet-stream;base64,"
    },
    {
      "byteLength": 60,
      "uri": "data:application/octet-stream;base64,"
    },
    {
      "byteLength": 180,
      "uri": "data:application/octet-stream;base64,"
    }
  ],
  "images": [
    {
      "name": "texture",
      "uri": "data:image/png;base64,"
    }
  ],
  "materials": [
    {
      "alphaMode": "BLEND",
      "extras": {
        "blend_mode": 32
      },
      "pbrMetallicRoughness": {
        "baseColorTexture": {
          "index": 0
        },
        "metallicFactor": 0.0
      }
    }
  ],
  "meshes": [
    {
      "primitives": [
        {
          "attributes": {
            "NORMAL": 1,
            "POSITION": 0,
            "TEXCOORD_0": 2,
            "TEXCOORD_1": 3
          },
          "material": 0,
          "mode": 4
        }
      ]
    },
    {
      "primitives": [
        {
          "attributes": {
            "NORMAL": 5,
            "POSITION": 4,
            "TEXCOORD_0": 6,
            "TEXCOORD_1": 7
          },
          "material": 0,
          "mode": 4
        }
      ]
    }
  ],
  "nodes": [
    {
      "children": [
        2
      ],
      "name": "bone_0",
      "rotation": [
        -0.0,
        -0.049813701880159766,
        0.0,
        0.998758526924799
      ],
      "scale": [
        0.009814331661250869,
        -0.009765625,
        -0.009814331661250869
      ],
      "translation": [
        0.0,
        -0.0,
        -0.0
      ]
    },
    {
      "children": [
        3
      ],
      "name": "bone_1",
      "rotation": [
        -0.0,
        -0.22975292054736118,
        0.0,
        0.9732489894677301
      ],
      "scale": [
        0.009826470604247123,
        -0.009765625,
        -0.009826470604247123
      ],
      "translation": [
        0.0,
        -0.0,
        -0.0
      ]
    },
    {
      "mesh": 0,
      "name": "mesh_0"
    },
    {
      "mesh": 1,
      "name": "mesh_1"
    }
  ],
  "samplers": [
    {
      "magFilter": 9728,
      "minFilter": 9728,
      "wrapS": 10497,
      "wrapT": 10497
    }
  ],
  "scene": 0,
  "scenes": [
    {
      "extras": {
        "blinking_data": [
          255,
          255,
          255,
          255,
          255,
          255,
          255,
          255,
          255,
          255,
          255,
          255,
          255,
          255,
          255,
          255,
          255,
          255,
          255,
          255,
          254,
          255,
          0,
          0
        ]
      },
      "nodes": [
        0,
        1
      ]
    }
  ],
  "skins": [
    {
      "joints": [
        0,
        1
      ],
      "skeleton": 0
    }
  ],
  "textures": [
    {
      "sampler": 0,
      "source": 0
    }
  ]
}
