{
  "accessors": [
    {
      "bufferView": 0,
      "componentType": 5126,
      "count": 144,
      "max": [
        1408.0,
        3840.0,
        1283.0
      ],
      "min": [
        -1408.0,
        0.0,
        -1283.0
      ],
      "type": "VEC3"
    },
    {
      "bufferView": 1,
      "componentType": 5126,
      "count": 144,
      "max": [
        0.876708984375,
        0.0,
        1.0
      ],
      "min": [
        -0.876708984375,
        0.0,
        -1.0
      ],
      "type": "VEC3"
    },
    {
      "bufferView": 2,
      "componentType": 5126,
      "count": 144,
      "max": [
        0.2344750016927719,
        0.3711937367916107
      ],
      "min": [
        9.999999747378752e-05,
        9.999999747378752e-05
      ],
      "type": "VEC2"
    },
    {
      "bufferView": 3,
      "componentType": 5126,
      "count": 144,
      "max": [
        0.515625,
        0.953125
      ],
      "min": [
        0.515625,
        0.953125
      ],
      "type": "VEC2"
    },
    {
      "bufferView": 4,
      "componentType": 5126,
      "count": 72,
      "max": [
        1552.0,
        3840.0,
        1405.0
      ],
      "min": [
        -1552.0,
        0.0,
        -1405.0
      ],
      "type": "VEC3"
    },
    {
      "bufferView": 5,
      "componentType": 5126,
      "count": 72,
      "max": [
        0.875244140625,
        0.0,
        1.0
      ],
      "min": [
        -0.875244140625,
        0.0,
        -1.0
      ],
      "type": "VEC3"
    },
    {
      "bufferView": 6,
      "componentType": 5126,
      "count": 72,
      "max": [
        0.9844750165939331,
        0.2461937516927719
      ],
      "min": [
        0.7501000165939331,
        9.999999747378752e-05
      ],
      "type": "VEC2"
    },
    {
      "bufferView": 7,
      "componentType": 5126,
      "count": 72,
      "max": [
        0.015625,
        0.953125
      ],
      "min": [
        0.015625,
        0.953125
      ],
      "type": "VEC2"
    },
    {
      "bufferView": 8,
      "componentType": 5126,
      "count": 59,
      "max": [
        1.9333332777023315
      ],
      "min": [
        0.0
      ],
      "type": "SCALAR"
    },
    {
      "bufferView": 9,
      "componentType": 5126,
      "count": 59,
      "max": [
        0.0,
        -0.0,
        -0.0
      ],
      "min": [
        0.0,
        -0.0,
        -0.0
      ],
      "type": "VEC3"
    },
    {
      "bufferView": 10,
      "componentType": 5126,
      "count": 59,
      "max": [
        1.9333332777023315
      ],
      "min": [
        0.0
      ],
      "type": "SCALAR"
    },
    {
      "bufferView": 11,
      "componentType": 5126,
      "count": 59,
      "max": [
        1.0,
        1.0,
        1.0,
        1.0
      ],
      "min": [
        -0.0,
        0.0,
        0.0,
        0.0
      ],
      "type": "VEC4"
    },
    {
      "bufferView": 12,
      "componentType": 5126,
      "count": 59,
      "max": [
        1.9333332777023315
      ],
      "min": [
        0.0
      ],
      "type": "SCALAR"
    },
    {
      "bufferView": 13,
      "componentType": 5126,
      "count": 59,
      "max": [
        1.0,
        1.958251953125,
        1.0
      ],
      "min": [
        0.034423828125,
        0.099853515625,
        0.034423828125
      ],
      "type": "VEC3"
    },
    {
      "bufferView": 14,
      "componentType": 5126,
      "count": 59,
      "max": [
        1.9333332777023315
      ],
      "min": [
        0.0
      ],
      "type": "SCALAR"
    },
    {
      "bufferView": 15,
      "componentType": 5126,
      "count": 59,
      "max": [
        0.0,
        -0.0,
        -0.0
      ],
      "min": [
        0.0,
        -0.0,
        -0.0
      ],
      "type": "VEC3"
    },
    {
      "bufferView": 16,
      "componentType": 5126,
      "count": 59,
      "max": [
        1.9333332777023315
      ],
      "min": [
        0.0
      ],
      "type": "SCALAR"
    },
    {
      "bufferView": 17,
      "componentType": 5126,
      "count": 59,
      "max": [
        0.9926944971084595,
        0.9981733560562134,
        0.9994149208068848,
        0.9955193996429443
      ],
      "min": [
        -0.0,
        -0.817916750907898,
        0.0,
        -0.472484827041626
      ],
      "type": "VEC4"
    },
    {
      "bufferView": 18,
      "componentType": 5126,
      "count": 59,
      "max": [
        1.9333332777023315
      ],
      "min": [
        0.0
      ],
      "type": "SCALAR"
    },
    {
      "bufferView": 19,
      "componentType": 5126,
      "count": 59,
      "max": [
        1.0,
        1.930908203125,
        1.0
      ],
      "min": [
        0.14267027378082275,
        0.06884765625,
        0.14267027378082275
      ],
      "type": "VEC3"
    }
  ],
  "animations": [
    {
      "channels": [
        {
          "sampler": 0,
          "target": {
            "node": 0,
            "path": "translation"
          }
        },
        {
          "sampler": 1,
          "target": {
            "node": 0,
            "path": "rotation"
          }
        },
        {
          "sampler": 2,
          "target": {
            "node": 0,
            "path": "scale"
          }
        },
        {
          "sampler": 3,
          "target": {
            "node": 1,
            "path": "translation"
          }
        },
        {
          "sampler": 4,
          "target": {
            "node": 1,
            "path": "rotation"
          }
        },
        {
          "sampler": 5,
          "target": {
            "node": 1,
            "path": "scale"
          }
        }
      ],
      "extras": {
        "loop_mask": 4352,
        "termination_mask": 255
      },
      "name": "anim_E",
      "samplers": [
        {
          "input": 8,
          "interpolation": "LINEAR",
          "output": 9
        },
        {
          "input": 10,
          "interpolation": "LINEAR",
          "output": 11
        },
        {
          "input": 12,
          "interpolation": "LINEAR",
          "output": 13
        },
        {
          "input": 14,
          "interpolation": "LINEAR",
          "output": 15
        },
        {
          "input": 16,
          "interpolation": "LINEAR",
          "output": 17
        },
        {
          "input": 18,
          "interpolation": "LINEAR",
          "output": 19
        }
      ]
    }
  ],
  "asset": {
    "generator": "dw2_model_converter v1.0.0",
    "version": "2.0"
  },
  "bufferViews": [
    {
      "buffer": 0,
      "byteLength": 1728,
      "target": 34962
    },
    {
      "buffer": 1,
      "byteLength": 1728,
      "target": 34962
    },
    {
      "buffer": 2,
      "byteLength": 1152,
      "target": 34962
    },
    {
      "buffer": 3,
      "byteLength": 1152,
      "target": 34962
    },
    {
      "buffer": 4,
      "byteLength": 864,
      "target": 34962
    },
    {
      "buffer": 5,
      "byteLength": 864,
      "target": 34962
    },
    {
      "buffer": 6,
      "byteLength": 576,
      "target": 34962
    },
    {
      "buffer": 7,
      "byteLength": 576,
      "target": 34962
    },
    {
      "buffer": 8,
      "byteLength": 236
    },
    {
      "buffer": 9,
      "byteLength": 708
    },
    {
      "buffer": 10,
      "byteLength": 236
    },
    {
      "buffer": 11,
      "byteLength": 944
    },
    {
      "buffer": 12,
      "byteLength": 236
    },
    {
      "buffer": 13,
      "byteLength": 708
    },
    {
      "buffer": 14,
      "byteLength": 236
    },
    {
      "buffer": 15,
      "byteLength": 708
    },
    {
      "buffer": 16,
      "byteLength": 236
    },
    {
      "buffer": 17,
      "byteLength": 944
    },
    {
      "buffer": 18,
      "byteLength": 236
    },
    {
      "buffer": 19,
      "byteLength": 708
    }
  ],
  "buffers": [
    {
      "byteLength": 1728,
      "uri": "data:application/octet-stream;base64,"
    },
    {
      "byteLength": 1728,
      "uri": "data:application/octet-stream;base64,"
    },
    {
      "byteLength": 1152,
      "uri": "data:application/octet-stream;base64,"
    },
    {
      "byteLength": 1152,
      "uri": "data:application/octet-stream;base64,"
    },
    {
      "byteLength": 864,
      "uri": "data:application/octet-stream;base64,"
    },
    {
      "byteLength": 864,
      "uri": "data:application/octet-stream;base64,"
    },
    {
      "byteLength": 576,
      "uri": "data:application/octet-stream;base64,"
    },
    {
      "byteLength": 576,
      "uri": "data:application/octet-stream;base64,"
    },
    {
      "byteLength": 236,
      "uri": "data:application/octet-stream;base64,"
    },
    {
      "byteLength": 708,
      "uri": "data:application/octet-stream;base64,"
    },
    {
      "byteLength": 236,
      "uri": "data:application/octet-stream;base64,"
    },
    {
      "byteLength": 944,
      "uri": "data:application/octet-stream;base64,"
    },
    {
      "byteLength": 236,
      "uri": "data:application/octet-stream;base64,"
    },
    {
      "byteLength": 708,
      "uri": "data:application/octet-stream;base64,"
    },
    {
      "byteLength": 236,
      "uri": "data:application/octet-stream;base64,"
    },
    {
      "byteLength": 708,
      "uri": "data:application/octet-stream;base64,"
    },
    {
      "byteLength": 236,
      "uri": "data:application/octet-stream;base64,"
    },
    {
      "byteLength": 944,
      "uri": "data:application/octet-stream;base64,"
    },
    {
      "byteLength": 236,
      "uri": "data:application/octet-stream;base64,"
    },
    {
      "byteLength": 708,
      "uri": "data:application/octet-stream;base64,"
    }
  ],
  "images": [
    {
      "name": "texture",
      "uri": "data:image/png;base64,"
    }
  ],
  "materials": [
    {
      "alphaMode": "BLEND",
      "extras": {
        "blend_mode": 32
      },
      "pbrMetallicRoughness": {
        "baseColorTexture": {
          "index": 0
        },
        "metallicFactor": 0.0
      }
    }
  ],
  "meshes": [
    {
      "primitives": [
        {
          "attributes": {
            "NORMAL": 1,
            "POSITION": 0,
            "TEXCOORD_0": 2,
            "TEXCOORD_1": 3
          },
          "material": 0,
          "mode": 4
        }
      ]
    },
    {
      "primitives": [
        {
          "attributes": {
            "NORMAL": 5,
            "POSITION": 4,
            "TEXCOORD_0": 6,
            "TEXCOORD_1": 7
          },
          "material": 0,
          "mode": 4
        }
      ]
    }
  ],
  "nodes": [
    {
      "children": [
        2
      ],
      "name": "bone_0",
      "rotation": [
        -0.0,
        0.0,
        0.0,
        1.0
      ],
      "scale": [
        0.066650390625,
        -0.099853515625,
        -0.066650390625
      ],
      "translation": [
        0.0,
        -0.0,
        -0.0
      ]
    },
    {
      "children": [
        3
      ],
      "name": "bone_1",
      "rotation": [
        -0.0,
        0.0,
        0.0,
        0.0
      ],
      "scale": [
        1.0,
        -1.0,
        -1.0
      ],
      "translation": [
        0.0,
        -0.0,
        -0.0
      ]
    },
    {
      "mesh": 0,
      "name": "mesh_0"
    },
    {
      "mesh": 1,
      "name": "mesh_1"
    }
  ],
  "samplers": [
    {
      "magFilter": 9728,
      "minFilter": 9728,
      "wrapS": 10497,
      "wrapT": 10497
    }
  ],
  "scene": 0,
  "scenes": [
    {
      "extras": {
        "blinking_data": [
          255,
          255,
          255,
          255,
          255,
          255,
          255,
          255,
          255,
          255,
          255,
          255,
          255,
          255,
          255,
          255,
          255,
          255,
          255,
          255,
          254,
          0,
          0,
          8
        ]
      },
      "nodes": [
        0,
        1
      ]
    }
  ],
  "skins": [
    {
      "joints": [
        0,
        1
      ],
      "skeleton": 0
    }
  ],
  "textures": [
    {
      "sampler": 0,
      "source": 0
    }
  ]
}
