{
  "accessors": [
    {
      "bufferView": 0,
      "componentType": 5126,
      "count": 72,
      "max": [
        2820.0,
        9573.0,
        2442.0
      ],
      "min": [
        -2820.0,
        0.0,
        -2442.0
      ],
      "type": "VEC3"
    },
    {
      "bufferView": 1,
      "componentType": 5126,
      "count": 72,
      "max": [
        1.0,
        0.0,
        0.865966796875
      ],
      "min": [
        -1.0,
        0.0,
        -0.865966796875
      ],
      "type": "VEC3"
    },
    {
      "bufferView": 2,
      "componentType": 5126,
      "count": 72,
      "max": [
        0.4844749867916107,
        0.2461937516927719
      ],
      "min": [
        9.999999747378752e-05,
        9.999999747378752e-05
      ],
      "type": "VEC2"
    },
    {
      "bufferView": 3,
      "componentType": 5126,
      "count": 72,
      "max": [
        0.515625,
        0.640625
      ],
      "min": [
        0.015625,
        0.578125
      ],
      "type": "VEC2"
    },
    {
      "bufferView": 4,
      "componentType": 5126,
      "count": 48,
      "max": [
        1536.0,
        8166.0,
        1536.0
      ],
      "min": [
        -1536.0,
        371.0,
        -1536.0
      ],
      "type": "VEC3"
    },
    {
      "bufferView": 5,
      "componentType": 5126,
      "count": 48,
      "max": [
        1.0,
        0.0,
        1.0
      ],
      "min": [
        -1.0,
        0.0,
        -1.0
      ],
      "type": "VEC3"
    },
    {
      "bufferView": 6,
      "componentType": 5126,
      "count": 48,
      "max": [
        0.9844750165939331,
        0.12119375169277191
      ],
      "min": [
        0.7501000165939331,
        9.999999747378752e-05
      ],
      "type": "VEC2"
    },
    {
      "bufferView": 7,
      "componentType": 5126,
      "count": 48,
      "max": [
        0.515625,
        0.578125
      ],
      "min": [
        0.515625,
        0.578125
      ],
      "type": "VEC2"
    },
    {
      "bufferView": 8,
      "componentType": 5126,
      "count": 144,
      "max": [
        1280.0,
        8352.0,
        1280.0
      ],
      "min": [
        -1280.0,
        0.0,
        -1280.0
      ],
      "type": "VEC3"
    },
    {
      "bufferView": 9,
      "componentType": 5126,
      "count": 144,
      "max": [
        1.0,
        0.0,
        1.0
      ],
      "min": [
        -1.0,
        0.0,
        -1.0
      ],
      "type": "VEC3"
    },
    {
      "bufferView": 10,
      "componentType": 5126,
      "count": 144,
      "max": [
        0.7344750165939331,
        0.2461937516927719
      ],
      "min": [
        0.5001000165939331,
        9.999999747378752e-05
      ],
      "type": "VEC2"
    },
    {
      "bufferView": 11,
      "componentType": 5126,
      "count": 144,
      "max": [
        0.515625,
        0.953125
      ],
      "min": [
        0.015625,
        0.953125
      ],
      "type": "VEC2"
    },
    {
      "bufferView": 12,
      "componentType": 5126,
      "count": 75,
      "max": [
        2.4666666984558105
      ],
      "min": [
        0.0
      ],
      "type": "SCALAR"
    },
    {
      "bufferView": 13,
      "componentType": 5126,
      "count": 75,
      "max": [
        1.0,
        9344.0,
        -0.0
      ],
      "min": [
        0.0,
        -0.0,
        -0.0
      ],
      "type": "VEC3"
    },
    {
      "bufferView": 14,
      "componentType": 5126,
      "count": 75,
      "max": [
        2.4666666984558105
      ],
      "min": [
        0.0
      ],
      "type": "SCALAR"
    },
    {
      "bufferView": 15,
      "componentType": 5126,
      "count": 75,
      "max": [
        1.0,
        1.0,
        1.0,
        1.0
      ],
      "min": [
        -0.0,
        -0.8216976523399353,
        0.0,
        -0.451145738363266
      ],
      "type": "VEC4"
    },
    {
      "bufferView": 16,
      "componentType": 5126,
      "count": 75,
      "max": [
        2.4666666984558105
      ],
      "min": [
        0.0
      ],
      "type": "SCALAR"
    },
    {
      "bufferView": 17,
      "componentType": 5126,
      "count": 75,
      "max": [
        0.999993085861206,
        2.038330078125,
        0.999993085861206
      ],
      "min": [
        0.009728934615850449,
        0.009765625,
        0.009728934615850449
      ],
      "type": "VEC3"
    },
    {
      "bufferView": 18,
      "componentType": 5126,
      "count": 75,
      "max": [
        2.4666666984558105
      ],
      "min": [
        0.0
      ],
      "type": "SCALAR"
    },
    {
      "bufferView": 19,
      "componentType": 5126,
      "count": 75,
      "max": [
        1.0,
        9344.0,
        -0.0
      ],
      "min": [
        0.0,
        -0.0,
        -0.0
      ],
      "type": "VEC3"
    },
    {
      "bufferView": 20,
      "componentType": 5126,
      "count": 75,
      "max": [
        2.4666666984558105
      ],
      "min": [
        0.0
      ],
      "type": "SCALAR"
    },
    {
      "bufferView": 21,
      "componentType": 5126,
      "count": 75,
      "max": [
        1.0,
        1.0,
        1.0,
        1.0
      ],
      "min": [
        -0.0,
        0.0,
        0.0,
        1.0
      ],
      "type": "VEC4"
    },
    {
      "bufferView": 22,
      "componentType": 5126,
      "count": 75,
      "max": [
        2.4666666984558105
      ],
      "min": [
        0.0
      ],
      "type": "SCALAR"
    },
    {
      "bufferView": 23,
      "componentType": 5126,
      "count": 75,
      "max": [
        1.0,
        1.0,
        1.0
      ],
      "min": [
        0.009765625,
        0.009765625,
        0.009765625
      ],
      "type": "VEC3"
    },
    {
      "bufferView": 24,
      "componentType": 5126,
      "count": 75,
      "max": [
        2.4666666984558105
      ],
      "min": [
        0.0
      ],
      "type": "SCALAR"
    },
    {
      "bufferView": 25,
      "componentType": 5126,
      "count": 75,
      "max": [
        0.0,
        -0.0,
        -0.0
      ],
      "min": [
        0.0,
        -0.0,
        -0.0
      ],
      "type": "VEC3"
    },
    {
      "bufferView": 26,
      "componentType": 5126,
      "count": 75,
      "max": [
        2.4666666984558105
      ],
      "min": [
        0.0
      ],
      "type": "SCALAR"
    },
    {
      "bufferView": 27,
      "componentType": 5126,
      "count": 75,
      "max": [
        1.0,
        1.0,
        1.0,
        1.0
      ],
      "min": [
        -0.0,
        0.0,
        0.0,
        1.0
      ],
      "type": "VEC4"
    },
    {
      "bufferView": 28,
      "componentType": 5126,
      "count": 75,
      "max": [
        2.4666666984558105
      ],
      "min": [
        0.0
      ],
      "type": "SCALAR"
    },
    {
      "bufferView": 29,
      "componentType": 5126,
      "count": 75,
      "max": [
        1.0,
        1.599853515625,
        1.0
      ],
      "min": [
        0.009765625,
        0.009765625,
        0.009765625
      ],
      "type": "VEC3"
    }
  ],
  "animations": [
    {
      "channels": [
        {
          "sampler": 0,
          "target": {
            "node": 0,
            "path": "translation"
          }
        },
        {
          "sampler": 1,
          "target": {
            "node": 0,
            "path": "rotation"
          }
        },
        {
          "sampler": 2,
          "target": {
            "node": 0,
            "path": "scale"
          }
        },
        {
          "sampler": 3,
          "target": {
            "node": 1,
            "path": "translation"
          }
        },
        {
          "sampler": 4,
          "target": {
            "node": 1,
            "path": "rotation"
          }
        },
        {
          "sampler": 5,
          "target": {
            "node": 1,
            "path": "scale"
          }
        },
        {
          "sampler": 6,
          "target": {
            "node": 2,
            "path": "translation"
          }
        },
        {
          "sampler": 7,
          "target": {
            "node": 2,
            "path": "rotation"
          }
        },
        {
          "sampler": 8,
          "target": {
            "node": 2,
            "path": "scale"
          }
        }
      ],
      "extras": {
        "loop_mask": 0,
        "termination_mask": 255
      },
      "name": "anim_E",
      "samplers": [
        {
          "input": 12,
          "interpolation": "LINEAR",
          "output": 13
        },
        {
          "input": 14,
          "interpolation": "LINEAR",
          "output": 15
        },
        {
          "input": 16,
          "interpolation": "LINEAR",
          "output": 17
        },
        {
          "input": 18,
          "interpolation": "LINEAR",
          "output": 19
        },
        {
          "input": 20,
          "interpolation": "LINEAR",
          "output": 21
        },
        {
          "input": 22,
          "interpolation": "LINEAR",
          "output": 23
        },
        {
          "input": 24,
          "interpolation": "LINEAR",
          "output": 25
        },
        {
          "input": 26,
          "interpolation": "LINEAR",
          "output": 27
        },
        {
          "input": 28,
          "interpolation": "LINEAR",
          "output": 29
        }
      ]
    }
  ],
  "asset": {
    "generator": "dw2_model_converter v1.0.0",
    "version": "2.0"
  },
  "bufferViews": [
    {
      "buffer": 0,
      "byteLength": 864,
      "target": 34962
    },
    {
      "buffer": 1,
      "byteLength": 864,
      "target": 34962
    },
    {
      "buffer": 2,
      "byteLength": 576,
      "target": 34962
    },
    {
      "buffer": 3,
      "byteLength": 576,
      "target": 34962
    },
    {
      "buffer": 4,
      "byteLength": 576,
      "target": 34962
    },
    {
      "buffer": 5,
      "byteLength": 576,
      "target": 34962
    },
    {
      "buffer": 6,
      "byteLength": 384,
      "target": 34962
    },
    {
      "buffer": 7,
      "byteLength": 384,
      "target": 34962
    },
    {
      "buffer": 8,
      "byteLength": 1728,
      "target": 34962
    },
    {
      "buffer": 9,
      "byteLength": 1728,
      "target": 34962
    },
    {
      "buffer": 10,
      "byteLength": 1152,
      "target": 34962
    },
    {
      "buffer": 11,
      "byteLength": 1152,
      "target": 34962
    },
    {
      "buffer": 12,
      "byteLength": 300
    },
    {
      "buffer": 13,
      "byteLength": 900
    },
    {
      "buffer": 14,
      "byteLength": 300
    },
    {
      "buffer": 15,
      "byteLength": 1200
    },
    {
      "buffer": 16,
      "byteLength": 300
    },
    {
      "buffer": 17,
      "byteLength": 900
    },
    {
      "buffer": 18,
      "byteLength": 300
    },
    {
      "buffer": 19,
      "byteLength": 900
    },
    {
      "buffer": 20,
      "byteLength": 300
    },
    {
      "buffer": 21,
      "byteLength": 1200
    },
    {
      "buffer": 22,
      "byteLength": 300
    },
    {
      "buffer": 23,
      "byteLength": 900
    },
    {
      "buffer": 24,
      "byteLength": 300
    },
    {
      "buffer": 25,
      "byteLength": 900
    },
    {
      "buffer": 26,
      "byteLength": 300
    },
    {
      "buffer": 27,
      "byteLength": 1200
    },
    {
      "buffer": 28,
      "byteLength": 300
    },
    {
      "buffer": 29,
      "byteLength": 900
    }
  ],
  "buffers": [
    {
      "byteLength": 864,
      "uri": "data:application/octet-stream;base64,"
    },
    {
      "byteLength": 864,
      "uri": "data:application/octet-stream;base64,"
    },
    {
      "byteLength": 576,
      "uri": "data:application/octet-stream;base64,"
    },
    {
      "byteLength": 576,
      "uri": "data:application/octet-stream;base64,"
    },
    {
      "byteLength": 576,
      "uri": "data:application/octet-stream;base64,"
    },
    {
      "byteLength": 576,
      "uri": "data:application/octet-stream;base64,"
    },
    {
      "byteLength": 384,
      "uri": "data:application/octet-stream;base64,"
    },
    {
      "byteLength": 384,
      "uri": "data:application/octet-stream;base64,"
    },
    {
      "byteLength": 1728,
      "uri": "data:application/octet-stream;base64,"
    },
    {
      "byteLength": 1728,
      "uri": "data:application/octet-stream;base64,"
    },
    {
      "byteLength": 1152,
      "uri": "data:application/octet-stream;base64,"
    },
    {
      "byteLength": 1152,
      "uri": "data:application/octet-stream;base64,"
    },
    {
      "byteLength": 300,
      "uri": "data:application/octet-stream;base64,"
    },
    {
      "byteLength": 900,
      "uri": "data:application/octet-stream;base64,"
    },
    {
      "byteLength": 300,
      "uri": "data:application/octet-stream;base64,"
    },
    {
      "byteLength": 1200,
      "uri": "data:application/octet-stream;base64,"
    },
    {
      "byteLength": 300,
      "uri": "data:application/octet-stream;base64,"
    },
    {
      "byteLength": 900,
      "uri": "data:application/octet-stream;base64,"
    },
    {
      "byteLength": 300,
      "uri": "data:application/octet-stream;base64,"
    },
    {
      "byteLength": 900,
      "uri": "data:application/octet-stream;base64,"
    },
    {
      "byteLength": 300,
      "uri": "data:application/octet-stream;base64,"
    },
    {
      "byteLength": 1200,
      "uri": "data:application/octet-stream;base64,"
    },
    {
      "byteLength": 300,
      "uri": "data:application/octet-stream;base64,"
    },
    {
      "byteLength": 900,
      "uri": "data:application/octet-stream;base64,"
    },
    {
      "byteLength": 300,
      "uri": "data:application/octet-stream;base64,"
    },
    {
      "byteLength": 900,
      "uri": "data:application/octet-stream;base64,"
    },
    {
      "byteLength": 300,
      "uri": "data:application/octet-stream;base64,"
    },
    {
      "byteLength": 1200,
      "uri": "data:application/octet-stream;base64,"
    },
    {
      "byteLength": 300,
      "uri": "data:application/octet-stream;base64,"
    },
    {
      "byteLength": 900,
      "uri": "data:application/octet-stream;base64,"
    }
  ],
  "images": [
    {
      "name": "texture",
      "uri": "data:image/png;base64,"
    }
  ],
  "materials": [
    {
      "alphaMode": "BLEND",
      "extras": {
        "blend_mode": 32
      },
      "pbrMetallicRoughness": {
        "baseColorTexture": {
          "index": 0
        },
        "metallicFactor": 0.0
      }
    }
  ],
  "meshes": [
    {
      "primitives": [
        {
          "attributes": {
            "NORMAL": 1,
            "POSITION": 0,
            "TEXCOORD_0": 2,
            "TEXCOORD_1": 3
          },
          "material": 0,
          "mode": 4
        }
      ]
    },
    {
      "primitives": [
        {
          "attributes": {
            "NORMAL": 5,
            "POSITION": 4,
            "TEXCOORD_0": 6,
            "TEXCOORD_1": 7
          },
          "material": 0,
          "mode": 4
        }
      ]
    },
    {
      "primitives": [
        {
          "attributes": {
            "NORMAL": 9,
            "POSITION": 8,
            "TEXCOORD_0": 10,
            "TEXCOORD_1": 11
          },
          "material": 0,
          "mode": 4
        }
      ]
    }
  ],
  "nodes": [
    {
      "children": [
        3
      ],
      "name": "bone_0",
      "rotation": [
        -0.0,
        0.0,
        0.0,
        1.0
      ],
      "scale": [
        0.009765625,
        -0.009765625,
        -0.009765625
      ],
      "translation": [
        1.0,
        -0.0,
        -0.0
      ]
    },
    {
      "children": [
        4
      ],
      "name": "bone_1",
      "rotation": [
        -0.0,
        0.0,
        0.0,
        1.0
      ],
      "scale": [
        0.009765625,
        -0.009765625,
        -0.009765625
      ],
      "translation": [
        1.0,
        -0.0,
        -0.0
      ]
    },
    {
      "children": [
        5
      ],
      "name": "bone_2",
      "rotation": [
        -0.0,
        0.0,
        0.0,
        1.0
      ],
      "scale": [
        1.0,
        -0.009765625,
        -1.0
      ],
      "translation": [
        0.0,
        -0.0,
        -0.0
      ]
    },
    {
      "mesh": 0,
      "name": "mesh_0"
    },
    {
      "mesh": 1,
      "name": "mesh_1"
    },
    {
      "mesh": 2,
      "name": "mesh_2"
    }
  ],
  "samplers": [
    {
      "magFilter": 9728,
      "minFilter": 9728,
      "wrapS": 10497,
      "wrapT": 10497
    }
  ],
  "scene": 0,
  "scenes": [
    {
      "extras": {
        "blinking_data": [
          255,
          255,
          255,
          255,
          255,
          255,
          255,
          255,
          255,
          255,
          255,
          255,
          255,
          255,
          255,
          255,
          255,
          255,
          255,
          255,
          254,
          16,
          32,
          8
        ]
      },
      "nodes": [
        0,
        1,
        2
      ]
    }
  ],
  "skins": [
    {
      "joints": [
        0,
        1,
        2
      ],
      "skeleton": 0
    }
  ],
  "textures": [
    {
      "sampler": 0,
      "source": 0
    }
  ]
}
